<?xml version="1.0" encoding="us-ascii" standalone="no"?><svg xmlns="http://www.w3.org/2000/svg" xmlns:xlink="http://www.w3.org/1999/xlink" contentStyleType="text/css" height="559px" preserveAspectRatio="none" style="width:3176px;height:559px;background:#FFFFFF;" version="1.1" viewBox="0 0 3176 559" width="3176px" zoomAndPan="magnify"><defs/><g><!--class DefaultFirebaseOptions--><g id="elem_DefaultFirebaseOptions"><rect codeLine="1" fill="#F1F1F1" height="126.2031" id="DefaultFirebaseOptions" rx="2.5" ry="2.5" style="stroke:#181818;stroke-width:0.5;" width="232" x="7" y="15"/><ellipse cx="44.5" cy="31" fill="#ADD1B2" rx="11" ry="11" style="stroke:#181818;stroke-width:1.0;"/><path d="M46.5,27.5 Q46.7031,27 46.9375,26.75 Q47.1719,26.5 47.4375,26.5 Q47.9063,26.5 48.2031,26.7813 Q48.5,27.0625 48.5,27.7188 L48.5,29.2813 Q48.5,29.9375 48.2188,30.2188 Q47.9375,30.5 47.5,30.5 Q47.1094,30.5 46.8594,30.3281 Q46.6094,30.1563 46.5,29.7031 Q46.4531,29.3906 46.2813,29.2188 Q45.9688,28.8906 45.4063,28.7031 Q44.8438,28.5 44.2813,28.5 Q43.5781,28.5 42.9844,28.7813 Q42.4063,29.0625 41.9531,29.6875 Q41.5,30.3125 41.5,31.1719 L41.5,32.0938 Q41.5,33.125 42.3438,33.8125 Q43.1875,34.5 44.6875,34.5 Q45.5781,34.5 46.2031,34.2969 Q46.5625,34.1875 46.9688,33.8281 Q47.2344,33.625 47.375,33.5625 Q47.5156,33.5 47.6875,33.5 Q48.0156,33.5 48.25,33.7656 Q48.5,34.0156 48.5,34.375 Q48.5,34.7188 48.1563,35.125 Q47.6563,35.7188 46.8594,36.0469 Q45.8125,36.5 44.5313,36.5 Q43.0313,36.5 41.8281,35.9063 Q40.8594,35.4375 40.1719,34.4219 Q39.5,33.4063 39.5,32.2031 L39.5,31.1094 Q39.5,29.8594 40.0938,28.7656 Q40.7031,27.6719 41.75,27.0938 Q42.8125,26.5 44,26.5 Q44.7188,26.5 45.3438,26.75 Q45.9688,27 46.5,27.5 Z " fill="#000000"/><text fill="#000000" font-family="sans-serif" font-size="14" lengthAdjust="spacing" textLength="150" x="63.5" y="35.8535">DefaultFirebaseOptions</text><line style="stroke:#181818;stroke-width:0.5;" x1="8" x2="238" y1="47" y2="47"/><text fill="#000000" font-family="sans-serif" font-size="14" lengthAdjust="spacing" textLength="138" x="13" y="63.6738">web: FirebaseOptions</text><text fill="#000000" font-family="sans-serif" font-size="14" lengthAdjust="spacing" textLength="161" x="13" y="79.3145">android: FirebaseOptions</text><text fill="#000000" font-family="sans-serif" font-size="14" lengthAdjust="spacing" textLength="131" x="13" y="94.9551">ios: FirebaseOptions</text><text fill="#000000" font-family="sans-serif" font-size="14" lengthAdjust="spacing" textLength="154" x="13" y="110.5957">macos: FirebaseOptions</text><line style="stroke:#181818;stroke-width:1.0;" x1="8" x2="238" y1="117.5625" y2="117.5625"/><text fill="#000000" font-family="sans-serif" font-size="14" lengthAdjust="spacing" textLength="220" x="13" y="134.2363">currentPlatform(): FirebaseOptions</text></g><!--class FirebaseOptions--><g id="elem_FirebaseOptions"><rect fill="#F1F1F1" height="48" id="FirebaseOptions" rx="2.5" ry="2.5" style="stroke:#181818;stroke-width:0.5;" width="137" x="54.5" y="295"/><ellipse cx="69.5" cy="311" fill="#ADD1B2" rx="11" ry="11" style="stroke:#181818;stroke-width:1.0;"/><path d="M71.5,307.5 Q71.7031,307 71.9375,306.75 Q72.1719,306.5 72.4375,306.5 Q72.9063,306.5 73.2031,306.7813 Q73.5,307.0625 73.5,307.7188 L73.5,309.2813 Q73.5,309.9375 73.2188,310.2188 Q72.9375,310.5 72.5,310.5 Q72.1094,310.5 71.8594,310.3281 Q71.6094,310.1563 71.5,309.7031 Q71.4531,309.3906 71.2813,309.2188 Q70.9688,308.8906 70.4063,308.7031 Q69.8438,308.5 69.2813,308.5 Q68.5781,308.5 67.9844,308.7813 Q67.4063,309.0625 66.9531,309.6875 Q66.5,310.3125 66.5,311.1719 L66.5,312.0938 Q66.5,313.125 67.3438,313.8125 Q68.1875,314.5 69.6875,314.5 Q70.5781,314.5 71.2031,314.2969 Q71.5625,314.1875 71.9688,313.8281 Q72.2344,313.625 72.375,313.5625 Q72.5156,313.5 72.6875,313.5 Q73.0156,313.5 73.25,313.7656 Q73.5,314.0156 73.5,314.375 Q73.5,314.7188 73.1563,315.125 Q72.6563,315.7188 71.8594,316.0469 Q70.8125,316.5 69.5313,316.5 Q68.0313,316.5 66.8281,315.9063 Q65.8594,315.4375 65.1719,314.4219 Q64.5,313.4063 64.5,312.2031 L64.5,311.1094 Q64.5,309.8594 65.0938,308.7656 Q65.7031,307.6719 66.75,307.0938 Q67.8125,306.5 69,306.5 Q69.7188,306.5 70.3438,306.75 Q70.9688,307 71.5,307.5 Z " fill="#000000"/><text fill="#000000" font-family="sans-serif" font-size="14" lengthAdjust="spacing" textLength="105" x="83.5" y="315.8535">FirebaseOptions</text><line style="stroke:#181818;stroke-width:0.5;" x1="55.5" x2="190.5" y1="327" y2="327"/><line style="stroke:#181818;stroke-width:0.5;" x1="55.5" x2="190.5" y1="335" y2="335"/></g><!--class MyApp--><g id="elem_MyApp"><rect codeLine="10" fill="#F1F1F1" height="63.6406" id="MyApp" rx="2.5" ry="2.5" style="stroke:#181818;stroke-width:0.5;" width="104" x="227" y="287"/><ellipse cx="255.05" cy="303" fill="#ADD1B2" rx="11" ry="11" style="stroke:#181818;stroke-width:1.0;"/><path d="M257.05,299.5 Q257.2531,299 257.4875,298.75 Q257.7219,298.5 257.9875,298.5 Q258.4563,298.5 258.7531,298.7813 Q259.05,299.0625 259.05,299.7188 L259.05,301.2813 Q259.05,301.9375 258.7688,302.2188 Q258.4875,302.5 258.05,302.5 Q257.6594,302.5 257.4094,302.3281 Q257.1594,302.1563 257.05,301.7031 Q257.0031,301.3906 256.8313,301.2188 Q256.5188,300.8906 255.9563,300.7031 Q255.3938,300.5 254.8313,300.5 Q254.1281,300.5 253.5344,300.7813 Q252.9563,301.0625 252.5031,301.6875 Q252.05,302.3125 252.05,303.1719 L252.05,304.0938 Q252.05,305.125 252.8938,305.8125 Q253.7375,306.5 255.2375,306.5 Q256.1281,306.5 256.7531,306.2969 Q257.1125,306.1875 257.5188,305.8281 Q257.7844,305.625 257.925,305.5625 Q258.0656,305.5 258.2375,305.5 Q258.5656,305.5 258.8,305.7656 Q259.05,306.0156 259.05,306.375 Q259.05,306.7188 258.7063,307.125 Q258.2063,307.7188 257.4094,308.0469 Q256.3625,308.5 255.0813,308.5 Q253.5813,308.5 252.3781,307.9063 Q251.4094,307.4375 250.7219,306.4219 Q250.05,305.4063 250.05,304.2031 L250.05,303.1094 Q250.05,301.8594 250.6438,300.7656 Q251.2531,299.6719 252.3,299.0938 Q253.3625,298.5 254.55,298.5 Q255.2688,298.5 255.8938,298.75 Q256.5188,299 257.05,299.5 Z " fill="#000000"/><text fill="#000000" font-family="sans-serif" font-size="14" lengthAdjust="spacing" textLength="43" x="271.95" y="307.8535">MyApp</text><line style="stroke:#181818;stroke-width:0.5;" x1="228" x2="330" y1="319" y2="319"/><line style="stroke:#181818;stroke-width:1.0;" x1="228" x2="330" y1="327" y2="327"/><text fill="#000000" font-family="sans-serif" font-size="14" lengthAdjust="spacing" textLength="92" x="233" y="343.6738">build(): Widget</text></g><!--class StatelessWidget--><g id="elem_StatelessWidget"><rect fill="#F1F1F1" height="48" id="StatelessWidget" rx="2.5" ry="2.5" style="stroke:#181818;stroke-width:0.5;" width="134" x="321" y="54"/><ellipse cx="336" cy="70" fill="#ADD1B2" rx="11" ry="11" style="stroke:#181818;stroke-width:1.0;"/><path d="M338,66.5 Q338.2031,66 338.4375,65.75 Q338.6719,65.5 338.9375,65.5 Q339.4063,65.5 339.7031,65.7813 Q340,66.0625 340,66.7188 L340,68.2813 Q340,68.9375 339.7188,69.2188 Q339.4375,69.5 339,69.5 Q338.6094,69.5 338.3594,69.3281 Q338.1094,69.1563 338,68.7031 Q337.9531,68.3906 337.7813,68.2188 Q337.4688,67.8906 336.9063,67.7031 Q336.3438,67.5 335.7813,67.5 Q335.0781,67.5 334.4844,67.7813 Q333.9063,68.0625 333.4531,68.6875 Q333,69.3125 333,70.1719 L333,71.0938 Q333,72.125 333.8438,72.8125 Q334.6875,73.5 336.1875,73.5 Q337.0781,73.5 337.7031,73.2969 Q338.0625,73.1875 338.4688,72.8281 Q338.7344,72.625 338.875,72.5625 Q339.0156,72.5 339.1875,72.5 Q339.5156,72.5 339.75,72.7656 Q340,73.0156 340,73.375 Q340,73.7188 339.6563,74.125 Q339.1563,74.7188 338.3594,75.0469 Q337.3125,75.5 336.0313,75.5 Q334.5313,75.5 333.3281,74.9063 Q332.3594,74.4375 331.6719,73.4219 Q331,72.4063 331,71.2031 L331,70.1094 Q331,68.8594 331.5938,67.7656 Q332.2031,66.6719 333.25,66.0938 Q334.3125,65.5 335.5,65.5 Q336.2188,65.5 336.8438,65.75 Q337.4688,66 338,66.5 Z " fill="#000000"/><text fill="#000000" font-family="sans-serif" font-size="14" lengthAdjust="spacing" textLength="102" x="350" y="74.8535">StatelessWidget</text><line style="stroke:#181818;stroke-width:0.5;" x1="322" x2="454" y1="86" y2="86"/><line style="stroke:#181818;stroke-width:0.5;" x1="322" x2="454" y1="94" y2="94"/></g><!--class MyHomePage--><g id="elem_MyHomePage"><rect codeLine="15" fill="#F1F1F1" height="126.2031" id="MyHomePage" rx="2.5" ry="2.5" style="stroke:#181818;stroke-width:0.5;" width="137" x="366.5" y="256"/><ellipse cx="389.6" cy="272" fill="#ADD1B2" rx="11" ry="11" style="stroke:#181818;stroke-width:1.0;"/><path d="M391.6,268.5 Q391.8031,268 392.0375,267.75 Q392.2719,267.5 392.5375,267.5 Q393.0063,267.5 393.3031,267.7813 Q393.6,268.0625 393.6,268.7188 L393.6,270.2813 Q393.6,270.9375 393.3188,271.2188 Q393.0375,271.5 392.6,271.5 Q392.2094,271.5 391.9594,271.3281 Q391.7094,271.1563 391.6,270.7031 Q391.5531,270.3906 391.3813,270.2188 Q391.0688,269.8906 390.5063,269.7031 Q389.9438,269.5 389.3813,269.5 Q388.6781,269.5 388.0844,269.7813 Q387.5063,270.0625 387.0531,270.6875 Q386.6,271.3125 386.6,272.1719 L386.6,273.0938 Q386.6,274.125 387.4438,274.8125 Q388.2875,275.5 389.7875,275.5 Q390.6781,275.5 391.3031,275.2969 Q391.6625,275.1875 392.0688,274.8281 Q392.3344,274.625 392.475,274.5625 Q392.6156,274.5 392.7875,274.5 Q393.1156,274.5 393.35,274.7656 Q393.6,275.0156 393.6,275.375 Q393.6,275.7188 393.2563,276.125 Q392.7563,276.7188 391.9594,277.0469 Q390.9125,277.5 389.6313,277.5 Q388.1313,277.5 386.9281,276.9063 Q385.9594,276.4375 385.2719,275.4219 Q384.6,274.4063 384.6,273.2031 L384.6,272.1094 Q384.6,270.8594 385.1938,269.7656 Q385.8031,268.6719 386.85,268.0938 Q387.9125,267.5 389.1,267.5 Q389.8188,267.5 390.4438,267.75 Q391.0688,268 391.6,268.5 Z " fill="#000000"/><text fill="#000000" font-family="sans-serif" font-size="14" lengthAdjust="spacing" textLength="87" x="405.4" y="276.8535">MyHomePage</text><line style="stroke:#181818;stroke-width:0.5;" x1="367.5" x2="502.5" y1="288" y2="288"/><line style="stroke:#181818;stroke-width:1.0;" x1="367.5" x2="502.5" y1="296" y2="296"/><text fill="#000000" font-family="sans-serif" font-size="14" lengthAdjust="spacing" textLength="92" x="372.5" y="312.6738">build(): Widget</text><text fill="#000000" font-family="sans-serif" font-size="14" lengthAdjust="spacing" textLength="123" x="372.5" y="328.3145">recordRoute(): void</text><text fill="#000000" font-family="sans-serif" font-size="14" lengthAdjust="spacing" textLength="118" x="372.5" y="343.9551">queryRoute(): void</text><text fill="#000000" font-family="sans-serif" font-size="14" lengthAdjust="spacing" textLength="120" x="372.5" y="359.5957">reportRoute(): void</text><text fill="#000000" font-family="sans-serif" font-size="14" lengthAdjust="spacing" textLength="125" x="372.5" y="375.2363">priorityRoute(): void</text></g><!--class PriorityPage--><g id="elem_PriorityPage"><rect codeLine="24" fill="#F1F1F1" height="63.6406" id="PriorityPage" rx="2.5" ry="2.5" style="stroke:#181818;stroke-width:0.5;" width="188" x="539" y="287"/><ellipse cx="590.25" cy="303" fill="#ADD1B2" rx="11" ry="11" style="stroke:#181818;stroke-width:1.0;"/><path d="M592.25,299.5 Q592.4531,299 592.6875,298.75 Q592.9219,298.5 593.1875,298.5 Q593.6563,298.5 593.9531,298.7813 Q594.25,299.0625 594.25,299.7188 L594.25,301.2813 Q594.25,301.9375 593.9688,302.2188 Q593.6875,302.5 593.25,302.5 Q592.8594,302.5 592.6094,302.3281 Q592.3594,302.1563 592.25,301.7031 Q592.2031,301.3906 592.0313,301.2188 Q591.7188,300.8906 591.1563,300.7031 Q590.5938,300.5 590.0313,300.5 Q589.3281,300.5 588.7344,300.7813 Q588.1563,301.0625 587.7031,301.6875 Q587.25,302.3125 587.25,303.1719 L587.25,304.0938 Q587.25,305.125 588.0938,305.8125 Q588.9375,306.5 590.4375,306.5 Q591.3281,306.5 591.9531,306.2969 Q592.3125,306.1875 592.7188,305.8281 Q592.9844,305.625 593.125,305.5625 Q593.2656,305.5 593.4375,305.5 Q593.7656,305.5 594,305.7656 Q594.25,306.0156 594.25,306.375 Q594.25,306.7188 593.9063,307.125 Q593.4063,307.7188 592.6094,308.0469 Q591.5625,308.5 590.2813,308.5 Q588.7813,308.5 587.5781,307.9063 Q586.6094,307.4375 585.9219,306.4219 Q585.25,305.4063 585.25,304.2031 L585.25,303.1094 Q585.25,301.8594 585.8438,300.7656 Q586.4531,299.6719 587.5,299.0938 Q588.5625,298.5 589.75,298.5 Q590.4688,298.5 591.0938,298.75 Q591.7188,299 592.25,299.5 Z " fill="#000000"/><text fill="#000000" font-family="sans-serif" font-size="14" lengthAdjust="spacing" textLength="77" x="610.75" y="307.8535">PriorityPage</text><line style="stroke:#181818;stroke-width:0.5;" x1="540" x2="726" y1="319" y2="319"/><line style="stroke:#181818;stroke-width:1.0;" x1="540" x2="726" y1="327" y2="327"/><text fill="#000000" font-family="sans-serif" font-size="14" lengthAdjust="spacing" textLength="176" x="545" y="343.6738">createState(): _PriorityState</text></g><!--class StatefulWidget--><g id="elem_StatefulWidget"><rect fill="#F1F1F1" height="48" id="StatefulWidget" rx="2.5" ry="2.5" style="stroke:#181818;stroke-width:0.5;" width="124" x="943" y="54"/><ellipse cx="958" cy="70" fill="#ADD1B2" rx="11" ry="11" style="stroke:#181818;stroke-width:1.0;"/><path d="M960,66.5 Q960.2031,66 960.4375,65.75 Q960.6719,65.5 960.9375,65.5 Q961.4063,65.5 961.7031,65.7813 Q962,66.0625 962,66.7188 L962,68.2813 Q962,68.9375 961.7188,69.2188 Q961.4375,69.5 961,69.5 Q960.6094,69.5 960.3594,69.3281 Q960.1094,69.1563 960,68.7031 Q959.9531,68.3906 959.7813,68.2188 Q959.4688,67.8906 958.9063,67.7031 Q958.3438,67.5 957.7813,67.5 Q957.0781,67.5 956.4844,67.7813 Q955.9063,68.0625 955.4531,68.6875 Q955,69.3125 955,70.1719 L955,71.0938 Q955,72.125 955.8438,72.8125 Q956.6875,73.5 958.1875,73.5 Q959.0781,73.5 959.7031,73.2969 Q960.0625,73.1875 960.4688,72.8281 Q960.7344,72.625 960.875,72.5625 Q961.0156,72.5 961.1875,72.5 Q961.5156,72.5 961.75,72.7656 Q962,73.0156 962,73.375 Q962,73.7188 961.6563,74.125 Q961.1563,74.7188 960.3594,75.0469 Q959.3125,75.5 958.0313,75.5 Q956.5313,75.5 955.3281,74.9063 Q954.3594,74.4375 953.6719,73.4219 Q953,72.4063 953,71.2031 L953,70.1094 Q953,68.8594 953.5938,67.7656 Q954.2031,66.6719 955.25,66.0938 Q956.3125,65.5 957.5,65.5 Q958.2188,65.5 958.8438,65.75 Q959.4688,66 960,66.5 Z " fill="#000000"/><text fill="#000000" font-family="sans-serif" font-size="14" lengthAdjust="spacing" textLength="92" x="972" y="74.8535">StatefulWidget</text><line style="stroke:#181818;stroke-width:0.5;" x1="944" x2="1066" y1="86" y2="86"/><line style="stroke:#181818;stroke-width:0.5;" x1="944" x2="1066" y1="94" y2="94"/></g><!--class _PriorityState--><g id="elem__PriorityState"><rect codeLine="29" fill="#F1F1F1" height="110.5625" id="_PriorityState" rx="2.5" ry="2.5" style="stroke:#181818;stroke-width:0.5;" width="276" x="1810" y="263.5"/><ellipse cx="1901.25" cy="279.5" fill="#ADD1B2" rx="11" ry="11" style="stroke:#181818;stroke-width:1.0;"/><path d="M1903.25,276 Q1903.4531,275.5 1903.6875,275.25 Q1903.9219,275 1904.1875,275 Q1904.6563,275 1904.9531,275.2813 Q1905.25,275.5625 1905.25,276.2188 L1905.25,277.7813 Q1905.25,278.4375 1904.9688,278.7188 Q1904.6875,279 1904.25,279 Q1903.8594,279 1903.6094,278.8281 Q1903.3594,278.6563 1903.25,278.2031 Q1903.2031,277.8906 1903.0313,277.7188 Q1902.7188,277.3906 1902.1563,277.2031 Q1901.5938,277 1901.0313,277 Q1900.3281,277 1899.7344,277.2813 Q1899.1563,277.5625 1898.7031,278.1875 Q1898.25,278.8125 1898.25,279.6719 L1898.25,280.5938 Q1898.25,281.625 1899.0938,282.3125 Q1899.9375,283 1901.4375,283 Q1902.3281,283 1902.9531,282.7969 Q1903.3125,282.6875 1903.7188,282.3281 Q1903.9844,282.125 1904.125,282.0625 Q1904.2656,282 1904.4375,282 Q1904.7656,282 1905,282.2656 Q1905.25,282.5156 1905.25,282.875 Q1905.25,283.2188 1904.9063,283.625 Q1904.4063,284.2188 1903.6094,284.5469 Q1902.5625,285 1901.2813,285 Q1899.7813,285 1898.5781,284.4063 Q1897.6094,283.9375 1896.9219,282.9219 Q1896.25,281.9063 1896.25,280.7031 L1896.25,279.6094 Q1896.25,278.3594 1896.8438,277.2656 Q1897.4531,276.1719 1898.5,275.5938 Q1899.5625,275 1900.75,275 Q1901.4688,275 1902.0938,275.25 Q1902.7188,275.5 1903.25,276 Z " fill="#000000"/><text fill="#000000" font-family="sans-serif" font-size="14" lengthAdjust="spacing" textLength="85" x="1921.75" y="284.3535">_PriorityState</text><line style="stroke:#181818;stroke-width:0.5;" x1="1811" x2="2085" y1="295.5" y2="295.5"/><text fill="#000000" font-family="sans-serif" font-size="14" lengthAdjust="spacing" textLength="264" x="1816" y="312.1738">queriedData: List&lt;Map&lt;String, dynamic&gt;&gt;</text><line style="stroke:#181818;stroke-width:1.0;" x1="1811" x2="2085" y1="319.1406" y2="319.1406"/><text fill="#000000" font-family="sans-serif" font-size="14" lengthAdjust="spacing" textLength="92" x="1830" y="335.8145">build(): Widget</text><text fill="#000000" font-family="sans-serif" font-size="14" lengthAdjust="spacing" textLength="230" x="1830" y="351.4551">returnTaskAndOccurrence(): Widget</text><rect fill="#F24D5C" height="6" style="stroke:#C82930;stroke-width:1.0;" width="6" x="1818" y="360.7422"/><text fill="#000000" font-family="sans-serif" font-size="14" lengthAdjust="spacing" textLength="178" x="1830" y="367.0957">_reportData(): Future&lt;void&gt;</text></g><!--class State--><g id="elem_State"><rect fill="#F1F1F1" height="48" id="State" rx="2.5" ry="2.5" style="stroke:#181818;stroke-width:0.5;" width="65" x="2070.5" y="54"/><ellipse cx="2085.5" cy="70" fill="#ADD1B2" rx="11" ry="11" style="stroke:#181818;stroke-width:1.0;"/><path d="M2087.5,66.5 Q2087.7031,66 2087.9375,65.75 Q2088.1719,65.5 2088.4375,65.5 Q2088.9063,65.5 2089.2031,65.7813 Q2089.5,66.0625 2089.5,66.7188 L2089.5,68.2813 Q2089.5,68.9375 2089.2188,69.2188 Q2088.9375,69.5 2088.5,69.5 Q2088.1094,69.5 2087.8594,69.3281 Q2087.6094,69.1563 2087.5,68.7031 Q2087.4531,68.3906 2087.2813,68.2188 Q2086.9688,67.8906 2086.4063,67.7031 Q2085.8438,67.5 2085.2813,67.5 Q2084.5781,67.5 2083.9844,67.7813 Q2083.4063,68.0625 2082.9531,68.6875 Q2082.5,69.3125 2082.5,70.1719 L2082.5,71.0938 Q2082.5,72.125 2083.3438,72.8125 Q2084.1875,73.5 2085.6875,73.5 Q2086.5781,73.5 2087.2031,73.2969 Q2087.5625,73.1875 2087.9688,72.8281 Q2088.2344,72.625 2088.375,72.5625 Q2088.5156,72.5 2088.6875,72.5 Q2089.0156,72.5 2089.25,72.7656 Q2089.5,73.0156 2089.5,73.375 Q2089.5,73.7188 2089.1563,74.125 Q2088.6563,74.7188 2087.8594,75.0469 Q2086.8125,75.5 2085.5313,75.5 Q2084.0313,75.5 2082.8281,74.9063 Q2081.8594,74.4375 2081.1719,73.4219 Q2080.5,72.4063 2080.5,71.2031 L2080.5,70.1094 Q2080.5,68.8594 2081.0938,67.7656 Q2081.7031,66.6719 2082.75,66.0938 Q2083.8125,65.5 2085,65.5 Q2085.7188,65.5 2086.3438,65.75 Q2086.9688,66 2087.5,66.5 Z " fill="#000000"/><text fill="#000000" font-family="sans-serif" font-size="14" lengthAdjust="spacing" textLength="33" x="2099.5" y="74.8535">State</text><line style="stroke:#181818;stroke-width:0.5;" x1="2071.5" x2="2134.5" y1="86" y2="86"/><line style="stroke:#181818;stroke-width:0.5;" x1="2071.5" x2="2134.5" y1="94" y2="94"/></g><!--class QueryPage--><g id="elem_QueryPage"><rect codeLine="37" fill="#F1F1F1" height="63.6406" id="QueryPage" rx="2.5" ry="2.5" style="stroke:#181818;stroke-width:0.5;" width="216" x="762" y="287"/><ellipse cx="829.75" cy="303" fill="#ADD1B2" rx="11" ry="11" style="stroke:#181818;stroke-width:1.0;"/><path d="M831.75,299.5 Q831.9531,299 832.1875,298.75 Q832.4219,298.5 832.6875,298.5 Q833.1563,298.5 833.4531,298.7813 Q833.75,299.0625 833.75,299.7188 L833.75,301.2813 Q833.75,301.9375 833.4688,302.2188 Q833.1875,302.5 832.75,302.5 Q832.3594,302.5 832.1094,302.3281 Q831.8594,302.1563 831.75,301.7031 Q831.7031,301.3906 831.5313,301.2188 Q831.2188,300.8906 830.6563,300.7031 Q830.0938,300.5 829.5313,300.5 Q828.8281,300.5 828.2344,300.7813 Q827.6563,301.0625 827.2031,301.6875 Q826.75,302.3125 826.75,303.1719 L826.75,304.0938 Q826.75,305.125 827.5938,305.8125 Q828.4375,306.5 829.9375,306.5 Q830.8281,306.5 831.4531,306.2969 Q831.8125,306.1875 832.2188,305.8281 Q832.4844,305.625 832.625,305.5625 Q832.7656,305.5 832.9375,305.5 Q833.2656,305.5 833.5,305.7656 Q833.75,306.0156 833.75,306.375 Q833.75,306.7188 833.4063,307.125 Q832.9063,307.7188 832.1094,308.0469 Q831.0625,308.5 829.7813,308.5 Q828.2813,308.5 827.0781,307.9063 Q826.1094,307.4375 825.4219,306.4219 Q824.75,305.4063 824.75,304.2031 L824.75,303.1094 Q824.75,301.8594 825.3438,300.7656 Q825.9531,299.6719 827,299.0938 Q828.0625,298.5 829.25,298.5 Q829.9688,298.5 830.5938,298.75 Q831.2188,299 831.75,299.5 Z " fill="#000000"/><text fill="#000000" font-family="sans-serif" font-size="14" lengthAdjust="spacing" textLength="72" x="850.25" y="307.8535">QueryPage</text><line style="stroke:#181818;stroke-width:0.5;" x1="763" x2="977" y1="319" y2="319"/><line style="stroke:#181818;stroke-width:1.0;" x1="763" x2="977" y1="327" y2="327"/><text fill="#000000" font-family="sans-serif" font-size="14" lengthAdjust="spacing" textLength="204" x="768" y="343.6738">createState(): _QueryPageState</text></g><!--class _QueryPageState--><g id="elem__QueryPageState"><rect codeLine="42" fill="#F1F1F1" height="220.0469" id="_QueryPageState" rx="2.5" ry="2.5" style="stroke:#181818;stroke-width:0.5;" width="250" x="1525" y="209"/><ellipse cx="1589.25" cy="225" fill="#ADD1B2" rx="11" ry="11" style="stroke:#181818;stroke-width:1.0;"/><path d="M1591.25,221.5 Q1591.4531,221 1591.6875,220.75 Q1591.9219,220.5 1592.1875,220.5 Q1592.6563,220.5 1592.9531,220.7813 Q1593.25,221.0625 1593.25,221.7188 L1593.25,223.2813 Q1593.25,223.9375 1592.9688,224.2188 Q1592.6875,224.5 1592.25,224.5 Q1591.8594,224.5 1591.6094,224.3281 Q1591.3594,224.1563 1591.25,223.7031 Q1591.2031,223.3906 1591.0313,223.2188 Q1590.7188,222.8906 1590.1563,222.7031 Q1589.5938,222.5 1589.0313,222.5 Q1588.3281,222.5 1587.7344,222.7813 Q1587.1563,223.0625 1586.7031,223.6875 Q1586.25,224.3125 1586.25,225.1719 L1586.25,226.0938 Q1586.25,227.125 1587.0938,227.8125 Q1587.9375,228.5 1589.4375,228.5 Q1590.3281,228.5 1590.9531,228.2969 Q1591.3125,228.1875 1591.7188,227.8281 Q1591.9844,227.625 1592.125,227.5625 Q1592.2656,227.5 1592.4375,227.5 Q1592.7656,227.5 1593,227.7656 Q1593.25,228.0156 1593.25,228.375 Q1593.25,228.7188 1592.9063,229.125 Q1592.4063,229.7188 1591.6094,230.0469 Q1590.5625,230.5 1589.2813,230.5 Q1587.7813,230.5 1586.5781,229.9063 Q1585.6094,229.4375 1584.9219,228.4219 Q1584.25,227.4063 1584.25,226.2031 L1584.25,225.1094 Q1584.25,223.8594 1584.8438,222.7656 Q1585.4531,221.6719 1586.5,221.0938 Q1587.5625,220.5 1588.75,220.5 Q1589.4688,220.5 1590.0938,220.75 Q1590.7188,221 1591.25,221.5 Z " fill="#000000"/><text fill="#000000" font-family="sans-serif" font-size="14" lengthAdjust="spacing" textLength="113" x="1609.75" y="229.8535">_QueryPageState</text><line style="stroke:#181818;stroke-width:0.5;" x1="1526" x2="1774" y1="241" y2="241"/><text fill="#000000" font-family="sans-serif" font-size="14" lengthAdjust="spacing" textLength="238" x="1531" y="257.6738">queryController: TextEditingController</text><text fill="#000000" font-family="sans-serif" font-size="14" lengthAdjust="spacing" textLength="151" x="1531" y="273.3145">dropdownValue: String?</text><text fill="#000000" font-family="sans-serif" font-size="14" lengthAdjust="spacing" textLength="161" x="1531" y="288.9551">queriedData: List&lt;String&gt;</text><text fill="#000000" font-family="sans-serif" font-size="14" lengthAdjust="spacing" textLength="160" x="1531" y="304.5957">selectedDate: DateTime?</text><line style="stroke:#181818;stroke-width:1.0;" x1="1526" x2="1774" y1="311.5625" y2="311.5625"/><text fill="#000000" font-family="sans-serif" font-size="14" lengthAdjust="spacing" textLength="92" x="1545" y="328.2363">build(): Widget</text><text fill="#000000" font-family="sans-serif" font-size="14" lengthAdjust="spacing" textLength="168" x="1545" y="343.877">handleTaskAndTag(): void</text><rect fill="#F24D5C" height="6" style="stroke:#C82930;stroke-width:1.0;" width="6" x="1533" y="353.1641"/><text fill="#000000" font-family="sans-serif" font-size="14" lengthAdjust="spacing" textLength="198" x="1545" y="359.5176">_performQuery(): Future&lt;void&gt;</text><rect fill="#F24D5C" height="6" style="stroke:#C82930;stroke-width:1.0;" width="6" x="1533" y="368.8047"/><text fill="#000000" font-family="sans-serif" font-size="14" lengthAdjust="spacing" textLength="169" x="1545" y="375.1582">_isValidDateFormat(): bool</text><rect fill="#F24D5C" height="6" style="stroke:#C82930;stroke-width:1.0;" width="6" x="1533" y="384.4453"/><text fill="#000000" font-family="sans-serif" font-size="14" lengthAdjust="spacing" textLength="172" x="1545" y="390.7988">_formatTimestamp(): String</text><rect fill="#F24D5C" height="6" style="stroke:#C82930;stroke-width:1.0;" width="6" x="1533" y="400.0859"/><text fill="#000000" font-family="sans-serif" font-size="14" lengthAdjust="spacing" textLength="134" x="1545" y="406.4395">_formatTime(): String</text><rect fill="#F24D5C" height="6" style="stroke:#C82930;stroke-width:1.0;" width="6" x="1533" y="415.7266"/><text fill="#000000" font-family="sans-serif" font-size="14" lengthAdjust="spacing" textLength="158" x="1545" y="422.0801">_queryInformation(): void</text></g><!--class TextEditingController--><g id="elem_TextEditingController"><rect fill="#F1F1F1" height="48" id="TextEditingController" rx="2.5" ry="2.5" style="stroke:#181818;stroke-width:0.5;" width="164" x="2176" y="497"/><ellipse cx="2191" cy="513" fill="#ADD1B2" rx="11" ry="11" style="stroke:#181818;stroke-width:1.0;"/><path d="M2193,509.5 Q2193.2031,509 2193.4375,508.75 Q2193.6719,508.5 2193.9375,508.5 Q2194.4063,508.5 2194.7031,508.7813 Q2195,509.0625 2195,509.7188 L2195,511.2813 Q2195,511.9375 2194.7188,512.2188 Q2194.4375,512.5 2194,512.5 Q2193.6094,512.5 2193.3594,512.3281 Q2193.1094,512.1563 2193,511.7031 Q2192.9531,511.3906 2192.7813,511.2188 Q2192.4688,510.8906 2191.9063,510.7031 Q2191.3438,510.5 2190.7813,510.5 Q2190.0781,510.5 2189.4844,510.7813 Q2188.9063,511.0625 2188.4531,511.6875 Q2188,512.3125 2188,513.1719 L2188,514.0938 Q2188,515.125 2188.8438,515.8125 Q2189.6875,516.5 2191.1875,516.5 Q2192.0781,516.5 2192.7031,516.2969 Q2193.0625,516.1875 2193.4688,515.8281 Q2193.7344,515.625 2193.875,515.5625 Q2194.0156,515.5 2194.1875,515.5 Q2194.5156,515.5 2194.75,515.7656 Q2195,516.0156 2195,516.375 Q2195,516.7188 2194.6563,517.125 Q2194.1563,517.7188 2193.3594,518.0469 Q2192.3125,518.5 2191.0313,518.5 Q2189.5313,518.5 2188.3281,517.9063 Q2187.3594,517.4375 2186.6719,516.4219 Q2186,515.4063 2186,514.2031 L2186,513.1094 Q2186,511.8594 2186.5938,510.7656 Q2187.2031,509.6719 2188.25,509.0938 Q2189.3125,508.5 2190.5,508.5 Q2191.2188,508.5 2191.8438,508.75 Q2192.4688,509 2193,509.5 Z " fill="#000000"/><text fill="#000000" font-family="sans-serif" font-size="14" lengthAdjust="spacing" textLength="132" x="2205" y="517.8535">TextEditingController</text><line style="stroke:#181818;stroke-width:0.5;" x1="2177" x2="2339" y1="529" y2="529"/><line style="stroke:#181818;stroke-width:0.5;" x1="2177" x2="2339" y1="537" y2="537"/></g><!--class DateTime--><g id="elem_DateTime"><rect fill="#F1F1F1" height="48" id="DateTime" rx="2.5" ry="2.5" style="stroke:#181818;stroke-width:0.5;" width="93" x="1603.5" y="497"/><ellipse cx="1618.5" cy="513" fill="#ADD1B2" rx="11" ry="11" style="stroke:#181818;stroke-width:1.0;"/><path d="M1620.5,509.5 Q1620.7031,509 1620.9375,508.75 Q1621.1719,508.5 1621.4375,508.5 Q1621.9063,508.5 1622.2031,508.7813 Q1622.5,509.0625 1622.5,509.7188 L1622.5,511.2813 Q1622.5,511.9375 1622.2188,512.2188 Q1621.9375,512.5 1621.5,512.5 Q1621.1094,512.5 1620.8594,512.3281 Q1620.6094,512.1563 1620.5,511.7031 Q1620.4531,511.3906 1620.2813,511.2188 Q1619.9688,510.8906 1619.4063,510.7031 Q1618.8438,510.5 1618.2813,510.5 Q1617.5781,510.5 1616.9844,510.7813 Q1616.4063,511.0625 1615.9531,511.6875 Q1615.5,512.3125 1615.5,513.1719 L1615.5,514.0938 Q1615.5,515.125 1616.3438,515.8125 Q1617.1875,516.5 1618.6875,516.5 Q1619.5781,516.5 1620.2031,516.2969 Q1620.5625,516.1875 1620.9688,515.8281 Q1621.2344,515.625 1621.375,515.5625 Q1621.5156,515.5 1621.6875,515.5 Q1622.0156,515.5 1622.25,515.7656 Q1622.5,516.0156 1622.5,516.375 Q1622.5,516.7188 1622.1563,517.125 Q1621.6563,517.7188 1620.8594,518.0469 Q1619.8125,518.5 1618.5313,518.5 Q1617.0313,518.5 1615.8281,517.9063 Q1614.8594,517.4375 1614.1719,516.4219 Q1613.5,515.4063 1613.5,514.2031 L1613.5,513.1094 Q1613.5,511.8594 1614.0938,510.7656 Q1614.7031,509.6719 1615.75,509.0938 Q1616.8125,508.5 1618,508.5 Q1618.7188,508.5 1619.3438,508.75 Q1619.9688,509 1620.5,509.5 Z " fill="#000000"/><text fill="#000000" font-family="sans-serif" font-size="14" lengthAdjust="spacing" textLength="61" x="1632.5" y="517.8535">DateTime</text><line style="stroke:#181818;stroke-width:0.5;" x1="1604.5" x2="1695.5" y1="529" y2="529"/><line style="stroke:#181818;stroke-width:0.5;" x1="1604.5" x2="1695.5" y1="537" y2="537"/></g><!--class RecordTimePage--><g id="elem_RecordTimePage"><rect codeLine="59" fill="#F1F1F1" height="63.6406" id="RecordTimePage" rx="2.5" ry="2.5" style="stroke:#181818;stroke-width:0.5;" width="254" x="1013" y="287"/><ellipse cx="1080.75" cy="303" fill="#ADD1B2" rx="11" ry="11" style="stroke:#181818;stroke-width:1.0;"/><path d="M1082.75,299.5 Q1082.9531,299 1083.1875,298.75 Q1083.4219,298.5 1083.6875,298.5 Q1084.1563,298.5 1084.4531,298.7813 Q1084.75,299.0625 1084.75,299.7188 L1084.75,301.2813 Q1084.75,301.9375 1084.4688,302.2188 Q1084.1875,302.5 1083.75,302.5 Q1083.3594,302.5 1083.1094,302.3281 Q1082.8594,302.1563 1082.75,301.7031 Q1082.7031,301.3906 1082.5313,301.2188 Q1082.2188,300.8906 1081.6563,300.7031 Q1081.0938,300.5 1080.5313,300.5 Q1079.8281,300.5 1079.2344,300.7813 Q1078.6563,301.0625 1078.2031,301.6875 Q1077.75,302.3125 1077.75,303.1719 L1077.75,304.0938 Q1077.75,305.125 1078.5938,305.8125 Q1079.4375,306.5 1080.9375,306.5 Q1081.8281,306.5 1082.4531,306.2969 Q1082.8125,306.1875 1083.2188,305.8281 Q1083.4844,305.625 1083.625,305.5625 Q1083.7656,305.5 1083.9375,305.5 Q1084.2656,305.5 1084.5,305.7656 Q1084.75,306.0156 1084.75,306.375 Q1084.75,306.7188 1084.4063,307.125 Q1083.9063,307.7188 1083.1094,308.0469 Q1082.0625,308.5 1080.7813,308.5 Q1079.2813,308.5 1078.0781,307.9063 Q1077.1094,307.4375 1076.4219,306.4219 Q1075.75,305.4063 1075.75,304.2031 L1075.75,303.1094 Q1075.75,301.8594 1076.3438,300.7656 Q1076.9531,299.6719 1078,299.0938 Q1079.0625,298.5 1080.25,298.5 Q1080.9688,298.5 1081.5938,298.75 Q1082.2188,299 1082.75,299.5 Z " fill="#000000"/><text fill="#000000" font-family="sans-serif" font-size="14" lengthAdjust="spacing" textLength="110" x="1101.25" y="307.8535">RecordTimePage</text><line style="stroke:#181818;stroke-width:0.5;" x1="1014" x2="1266" y1="319" y2="319"/><line style="stroke:#181818;stroke-width:1.0;" x1="1014" x2="1266" y1="327" y2="327"/><text fill="#000000" font-family="sans-serif" font-size="14" lengthAdjust="spacing" textLength="242" x="1019" y="343.6738">createState(): _RecordTimePageState</text></g><!--class _RecordTimePageState--><g id="elem__RecordTimePageState"><rect codeLine="64" fill="#F1F1F1" height="188.7656" id="_RecordTimePageState" rx="2.5" ry="2.5" style="stroke:#181818;stroke-width:0.5;" width="273" x="2121.5" y="224.5"/><ellipse cx="2178.25" cy="240.5" fill="#ADD1B2" rx="11" ry="11" style="stroke:#181818;stroke-width:1.0;"/><path d="M2180.25,237 Q2180.4531,236.5 2180.6875,236.25 Q2180.9219,236 2181.1875,236 Q2181.6563,236 2181.9531,236.2813 Q2182.25,236.5625 2182.25,237.2188 L2182.25,238.7813 Q2182.25,239.4375 2181.9688,239.7188 Q2181.6875,240 2181.25,240 Q2180.8594,240 2180.6094,239.8281 Q2180.3594,239.6563 2180.25,239.2031 Q2180.2031,238.8906 2180.0313,238.7188 Q2179.7188,238.3906 2179.1563,238.2031 Q2178.5938,238 2178.0313,238 Q2177.3281,238 2176.7344,238.2813 Q2176.1563,238.5625 2175.7031,239.1875 Q2175.25,239.8125 2175.25,240.6719 L2175.25,241.5938 Q2175.25,242.625 2176.0938,243.3125 Q2176.9375,244 2178.4375,244 Q2179.3281,244 2179.9531,243.7969 Q2180.3125,243.6875 2180.7188,243.3281 Q2180.9844,243.125 2181.125,243.0625 Q2181.2656,243 2181.4375,243 Q2181.7656,243 2182,243.2656 Q2182.25,243.5156 2182.25,243.875 Q2182.25,244.2188 2181.9063,244.625 Q2181.4063,245.2188 2180.6094,245.5469 Q2179.5625,246 2178.2813,246 Q2176.7813,246 2175.5781,245.4063 Q2174.6094,244.9375 2173.9219,243.9219 Q2173.25,242.9063 2173.25,241.7031 L2173.25,240.6094 Q2173.25,239.3594 2173.8438,238.2656 Q2174.4531,237.1719 2175.5,236.5938 Q2176.5625,236 2177.75,236 Q2178.4688,236 2179.0938,236.25 Q2179.7188,236.5 2180.25,237 Z " fill="#000000"/><text fill="#000000" font-family="sans-serif" font-size="14" lengthAdjust="spacing" textLength="151" x="2198.75" y="245.3535">_RecordTimePageState</text><line style="stroke:#181818;stroke-width:0.5;" x1="2122.5" x2="2393.5" y1="256.5" y2="256.5"/><text fill="#000000" font-family="sans-serif" font-size="14" lengthAdjust="spacing" textLength="230" x="2127.5" y="273.1738">dateController: TextEditingController</text><text fill="#000000" font-family="sans-serif" font-size="14" lengthAdjust="spacing" textLength="261" x="2127.5" y="288.8145">fromTimeController: TextEditingController</text><text fill="#000000" font-family="sans-serif" font-size="14" lengthAdjust="spacing" textLength="245" x="2127.5" y="304.4551">toTimeController: TextEditingController</text><text fill="#000000" font-family="sans-serif" font-size="14" lengthAdjust="spacing" textLength="228" x="2127.5" y="320.0957">taskController: TextEditingController</text><text fill="#000000" font-family="sans-serif" font-size="14" lengthAdjust="spacing" textLength="222" x="2127.5" y="335.7363">tagController: TextEditingController</text><line style="stroke:#181818;stroke-width:1.0;" x1="2122.5" x2="2393.5" y1="342.7031" y2="342.7031"/><text fill="#000000" font-family="sans-serif" font-size="14" lengthAdjust="spacing" textLength="92" x="2141.5" y="359.377">build(): Widget</text><rect fill="#F24D5C" height="6" style="stroke:#C82930;stroke-width:1.0;" width="6" x="2129.5" y="368.6641"/><text fill="#000000" font-family="sans-serif" font-size="14" lengthAdjust="spacing" textLength="159" x="2141.5" y="375.0176">_saveTimeRecord(): void</text><rect fill="#F24D5C" height="6" style="stroke:#C82930;stroke-width:1.0;" width="6" x="2129.5" y="384.3047"/><text fill="#000000" font-family="sans-serif" font-size="14" lengthAdjust="spacing" textLength="153" x="2141.5" y="390.6582">_parseDate(): DateTime</text><rect fill="#F24D5C" height="6" style="stroke:#C82930;stroke-width:1.0;" width="6" x="2129.5" y="399.9453"/><text fill="#000000" font-family="sans-serif" font-size="14" lengthAdjust="spacing" textLength="164" x="2141.5" y="406.2988">_parseTime(): TimeOfDay</text></g><!--class ReportCommand--><g id="elem_ReportCommand"><rect codeLine="78" fill="#F1F1F1" height="63.6406" id="ReportCommand" rx="2.5" ry="2.5" style="stroke:#181818;stroke-width:0.5;" width="139" x="2601.5" y="489"/><ellipse cx="2616.5" cy="505" fill="#A9DCDF" rx="11" ry="11" style="stroke:#181818;stroke-width:1.0;"/><path d="M2618.25,506.5 L2614.9531,506.5 L2614.5156,507.5 L2614.5156,507.5 L2614.9844,507.5 L2615.5,508.125 L2615.5,508.5 L2615.5,508.875 L2614.9844,509.5 L2614.5156,509.5 L2612.625,509.5 L2612.0156,509.5 L2611.5,508.875 L2611.5,508.5 L2611.5,508.125 L2612.0156,507.5 L2612.625,507.5 L2614.9375,501.5 L2614.0625,501.5 L2613.0156,501.5 L2612.5,500.875 L2612.5,500.5 L2612.5,500.125 L2613.0156,499.5 L2614.0625,499.5 L2617.7344,499.5 L2620.4219,507.5 L2620.9844,507.5 L2620.9844,507.5 L2621.5,508.125 L2621.5,508.5 L2621.5,508.875 L2620.9844,509.5 L2620.4219,509.5 L2618.5313,509.5 L2618.0156,509.5 L2617.5,508.875 L2617.5,508.5 L2617.5,508.125 L2618.0156,507.5 L2618.5313,507.5 L2618.5313,507.5 L2618.25,506.5 Z M2617.7031,504.5 L2616.5,500.9219 L2615.4688,504.5 L2617.7031,504.5 Z " fill="#000000"/><text fill="#000000" font-family="sans-serif" font-size="14" font-style="italic" lengthAdjust="spacing" textLength="107" x="2630.5" y="509.8535">ReportCommand</text><line style="stroke:#181818;stroke-width:0.5;" x1="2602.5" x2="2739.5" y1="521" y2="521"/><line style="stroke:#181818;stroke-width:1.0;" x1="2602.5" x2="2739.5" y1="529" y2="529"/><text fill="#000000" font-family="sans-serif" font-size="14" lengthAdjust="spacing" textLength="93" x="2607.5" y="545.6738">execute(): void</text></g><!--class ReportDataCommand--><g id="elem_ReportDataCommand"><rect codeLine="82" fill="#F1F1F1" height="79.2813" id="ReportDataCommand" rx="2.5" ry="2.5" style="stroke:#181818;stroke-width:0.5;" width="169" x="2525.5" y="38.5"/><ellipse cx="2540.5" cy="54.5" fill="#ADD1B2" rx="11" ry="11" style="stroke:#181818;stroke-width:1.0;"/><path d="M2542.5,51 Q2542.7031,50.5 2542.9375,50.25 Q2543.1719,50 2543.4375,50 Q2543.9063,50 2544.2031,50.2813 Q2544.5,50.5625 2544.5,51.2188 L2544.5,52.7813 Q2544.5,53.4375 2544.2188,53.7188 Q2543.9375,54 2543.5,54 Q2543.1094,54 2542.8594,53.8281 Q2542.6094,53.6563 2542.5,53.2031 Q2542.4531,52.8906 2542.2813,52.7188 Q2541.9688,52.3906 2541.4063,52.2031 Q2540.8438,52 2540.2813,52 Q2539.5781,52 2538.9844,52.2813 Q2538.4063,52.5625 2537.9531,53.1875 Q2537.5,53.8125 2537.5,54.6719 L2537.5,55.5938 Q2537.5,56.625 2538.3438,57.3125 Q2539.1875,58 2540.6875,58 Q2541.5781,58 2542.2031,57.7969 Q2542.5625,57.6875 2542.9688,57.3281 Q2543.2344,57.125 2543.375,57.0625 Q2543.5156,57 2543.6875,57 Q2544.0156,57 2544.25,57.2656 Q2544.5,57.5156 2544.5,57.875 Q2544.5,58.2188 2544.1563,58.625 Q2543.6563,59.2188 2542.8594,59.5469 Q2541.8125,60 2540.5313,60 Q2539.0313,60 2537.8281,59.4063 Q2536.8594,58.9375 2536.1719,57.9219 Q2535.5,56.9063 2535.5,55.7031 L2535.5,54.6094 Q2535.5,53.3594 2536.0938,52.2656 Q2536.7031,51.1719 2537.75,50.5938 Q2538.8125,50 2540,50 Q2540.7188,50 2541.3438,50.25 Q2541.9688,50.5 2542.5,51 Z " fill="#000000"/><text fill="#000000" font-family="sans-serif" font-size="14" lengthAdjust="spacing" textLength="137" x="2554.5" y="59.3535">ReportDataCommand</text><line style="stroke:#181818;stroke-width:0.5;" x1="2526.5" x2="2693.5" y1="70.5" y2="70.5"/><text fill="#000000" font-family="sans-serif" font-size="14" lengthAdjust="spacing" textLength="123" x="2531.5" y="87.1738">state: _ReportState</text><line style="stroke:#181818;stroke-width:1.0;" x1="2526.5" x2="2693.5" y1="94.1406" y2="94.1406"/><text fill="#000000" font-family="sans-serif" font-size="14" lengthAdjust="spacing" textLength="93" x="2531.5" y="110.8145">execute(): void</text></g><!--class _ReportState--><g id="elem__ReportState"><rect codeLine="94" fill="#F1F1F1" height="220.0469" id="_ReportState" rx="2.5" ry="2.5" style="stroke:#181818;stroke-width:0.5;" width="286" x="2430" y="209"/><ellipse cx="2526.75" cy="225" fill="#ADD1B2" rx="11" ry="11" style="stroke:#181818;stroke-width:1.0;"/><path d="M2528.75,221.5 Q2528.9531,221 2529.1875,220.75 Q2529.4219,220.5 2529.6875,220.5 Q2530.1563,220.5 2530.4531,220.7813 Q2530.75,221.0625 2530.75,221.7188 L2530.75,223.2813 Q2530.75,223.9375 2530.4688,224.2188 Q2530.1875,224.5 2529.75,224.5 Q2529.3594,224.5 2529.1094,224.3281 Q2528.8594,224.1563 2528.75,223.7031 Q2528.7031,223.3906 2528.5313,223.2188 Q2528.2188,222.8906 2527.6563,222.7031 Q2527.0938,222.5 2526.5313,222.5 Q2525.8281,222.5 2525.2344,222.7813 Q2524.6563,223.0625 2524.2031,223.6875 Q2523.75,224.3125 2523.75,225.1719 L2523.75,226.0938 Q2523.75,227.125 2524.5938,227.8125 Q2525.4375,228.5 2526.9375,228.5 Q2527.8281,228.5 2528.4531,228.2969 Q2528.8125,228.1875 2529.2188,227.8281 Q2529.4844,227.625 2529.625,227.5625 Q2529.7656,227.5 2529.9375,227.5 Q2530.2656,227.5 2530.5,227.7656 Q2530.75,228.0156 2530.75,228.375 Q2530.75,228.7188 2530.4063,229.125 Q2529.9063,229.7188 2529.1094,230.0469 Q2528.0625,230.5 2526.7813,230.5 Q2525.2813,230.5 2524.0781,229.9063 Q2523.1094,229.4375 2522.4219,228.4219 Q2521.75,227.4063 2521.75,226.2031 L2521.75,225.1094 Q2521.75,223.8594 2522.3438,222.7656 Q2522.9531,221.6719 2524,221.0938 Q2525.0625,220.5 2526.25,220.5 Q2526.9688,220.5 2527.5938,220.75 Q2528.2188,221 2528.75,221.5 Z " fill="#000000"/><text fill="#000000" font-family="sans-serif" font-size="14" lengthAdjust="spacing" textLength="84" x="2547.25" y="229.8535">_ReportState</text><line style="stroke:#181818;stroke-width:0.5;" x1="2431" x2="2715" y1="241" y2="241"/><text fill="#000000" font-family="sans-serif" font-size="14" lengthAdjust="spacing" textLength="260" x="2450" y="257.6738">startDateController: TextEditingController</text><text fill="#000000" font-family="sans-serif" font-size="14" lengthAdjust="spacing" textLength="256" x="2450" y="273.3145">endDateController: TextEditingController</text><text fill="#000000" font-family="sans-serif" font-size="14" lengthAdjust="spacing" textLength="161" x="2450" y="288.9551">queriedData: List&lt;String&gt;</text><rect fill="none" height="6" style="stroke:#C82930;stroke-width:1.0;" width="6" x="2438" y="298.2422"/><text fill="#000000" font-family="sans-serif" font-size="14" lengthAdjust="spacing" textLength="192" x="2450" y="304.5957">_command: ReportCommand?</text><line style="stroke:#181818;stroke-width:1.0;" x1="2431" x2="2715" y1="311.5625" y2="311.5625"/><text fill="#000000" font-family="sans-serif" font-size="14" lengthAdjust="spacing" textLength="92" x="2450" y="328.2363">build(): Widget</text><text fill="#000000" font-family="sans-serif" font-size="14" lengthAdjust="spacing" textLength="164" x="2450" y="343.877">handleButtonPress(): void</text><rect fill="#F24D5C" height="6" style="stroke:#C82930;stroke-width:1.0;" width="6" x="2438" y="353.1641"/><text fill="#000000" font-family="sans-serif" font-size="14" lengthAdjust="spacing" textLength="178" x="2450" y="359.5176">_reportData(): Future&lt;void&gt;</text><rect fill="#F24D5C" height="6" style="stroke:#C82930;stroke-width:1.0;" width="6" x="2438" y="368.8047"/><text fill="#000000" font-family="sans-serif" font-size="14" lengthAdjust="spacing" textLength="169" x="2450" y="375.1582">_isValidDateFormat(): bool</text><rect fill="#F24D5C" height="6" style="stroke:#C82930;stroke-width:1.0;" width="6" x="2438" y="384.4453"/><text fill="#000000" font-family="sans-serif" font-size="14" lengthAdjust="spacing" textLength="172" x="2450" y="390.7988">_formatTimestamp(): String</text><rect fill="#F24D5C" height="6" style="stroke:#C82930;stroke-width:1.0;" width="6" x="2438" y="400.0859"/><text fill="#000000" font-family="sans-serif" font-size="14" lengthAdjust="spacing" textLength="134" x="2450" y="406.4395">_formatTime(): String</text><rect fill="#F24D5C" height="6" style="stroke:#C82930;stroke-width:1.0;" width="6" x="2438" y="415.7266"/><text fill="#000000" font-family="sans-serif" font-size="14" lengthAdjust="spacing" textLength="165" x="2450" y="422.0801">_executeCommand(): void</text></g><!--class ReportPage--><g id="elem_ReportPage"><rect codeLine="89" fill="#F1F1F1" height="63.6406" id="ReportPage" rx="2.5" ry="2.5" style="stroke:#181818;stroke-width:0.5;" width="187" x="1302.5" y="287"/><ellipse cx="1353.75" cy="303" fill="#ADD1B2" rx="11" ry="11" style="stroke:#181818;stroke-width:1.0;"/><path d="M1355.75,299.5 Q1355.9531,299 1356.1875,298.75 Q1356.4219,298.5 1356.6875,298.5 Q1357.1563,298.5 1357.4531,298.7813 Q1357.75,299.0625 1357.75,299.7188 L1357.75,301.2813 Q1357.75,301.9375 1357.4688,302.2188 Q1357.1875,302.5 1356.75,302.5 Q1356.3594,302.5 1356.1094,302.3281 Q1355.8594,302.1563 1355.75,301.7031 Q1355.7031,301.3906 1355.5313,301.2188 Q1355.2188,300.8906 1354.6563,300.7031 Q1354.0938,300.5 1353.5313,300.5 Q1352.8281,300.5 1352.2344,300.7813 Q1351.6563,301.0625 1351.2031,301.6875 Q1350.75,302.3125 1350.75,303.1719 L1350.75,304.0938 Q1350.75,305.125 1351.5938,305.8125 Q1352.4375,306.5 1353.9375,306.5 Q1354.8281,306.5 1355.4531,306.2969 Q1355.8125,306.1875 1356.2188,305.8281 Q1356.4844,305.625 1356.625,305.5625 Q1356.7656,305.5 1356.9375,305.5 Q1357.2656,305.5 1357.5,305.7656 Q1357.75,306.0156 1357.75,306.375 Q1357.75,306.7188 1357.4063,307.125 Q1356.9063,307.7188 1356.1094,308.0469 Q1355.0625,308.5 1353.7813,308.5 Q1352.2813,308.5 1351.0781,307.9063 Q1350.1094,307.4375 1349.4219,306.4219 Q1348.75,305.4063 1348.75,304.2031 L1348.75,303.1094 Q1348.75,301.8594 1349.3438,300.7656 Q1349.9531,299.6719 1351,299.0938 Q1352.0625,298.5 1353.25,298.5 Q1353.9688,298.5 1354.5938,298.75 Q1355.2188,299 1355.75,299.5 Z " fill="#000000"/><text fill="#000000" font-family="sans-serif" font-size="14" lengthAdjust="spacing" textLength="76" x="1374.25" y="307.8535">ReportPage</text><line style="stroke:#181818;stroke-width:0.5;" x1="1303.5" x2="1488.5" y1="319" y2="319"/><line style="stroke:#181818;stroke-width:1.0;" x1="1303.5" x2="1488.5" y1="327" y2="327"/><text fill="#000000" font-family="sans-serif" font-size="14" lengthAdjust="spacing" textLength="175" x="1308.5" y="343.6738">createState(): _ReportState</text></g><!--class Constants--><g id="elem_Constants"><rect codeLine="111" fill="#F1F1F1" height="141.8438" id="Constants" rx="2.5" ry="2.5" style="stroke:#181818;stroke-width:0.5;" width="177" x="2766.5" y="7"/><ellipse cx="2818.75" cy="23" fill="#ADD1B2" rx="11" ry="11" style="stroke:#181818;stroke-width:1.0;"/><path d="M2820.75,19.5 Q2820.9531,19 2821.1875,18.75 Q2821.4219,18.5 2821.6875,18.5 Q2822.1563,18.5 2822.4531,18.7813 Q2822.75,19.0625 2822.75,19.7188 L2822.75,21.2813 Q2822.75,21.9375 2822.4688,22.2188 Q2822.1875,22.5 2821.75,22.5 Q2821.3594,22.5 2821.1094,22.3281 Q2820.8594,22.1563 2820.75,21.7031 Q2820.7031,21.3906 2820.5313,21.2188 Q2820.2188,20.8906 2819.6563,20.7031 Q2819.0938,20.5 2818.5313,20.5 Q2817.8281,20.5 2817.2344,20.7813 Q2816.6563,21.0625 2816.2031,21.6875 Q2815.75,22.3125 2815.75,23.1719 L2815.75,24.0938 Q2815.75,25.125 2816.5938,25.8125 Q2817.4375,26.5 2818.9375,26.5 Q2819.8281,26.5 2820.4531,26.2969 Q2820.8125,26.1875 2821.2188,25.8281 Q2821.4844,25.625 2821.625,25.5625 Q2821.7656,25.5 2821.9375,25.5 Q2822.2656,25.5 2822.5,25.7656 Q2822.75,26.0156 2822.75,26.375 Q2822.75,26.7188 2822.4063,27.125 Q2821.9063,27.7188 2821.1094,28.0469 Q2820.0625,28.5 2818.7813,28.5 Q2817.2813,28.5 2816.0781,27.9063 Q2815.1094,27.4375 2814.4219,26.4219 Q2813.75,25.4063 2813.75,24.2031 L2813.75,23.1094 Q2813.75,21.8594 2814.3438,20.7656 Q2814.9531,19.6719 2816,19.0938 Q2817.0625,18.5 2818.25,18.5 Q2818.9688,18.5 2819.5938,18.75 Q2820.2188,19 2820.75,19.5 Z " fill="#000000"/><text fill="#000000" font-family="sans-serif" font-size="14" lengthAdjust="spacing" textLength="64" x="2839.25" y="27.8535">Constants</text><line style="stroke:#181818;stroke-width:0.5;" x1="2767.5" x2="2942.5" y1="39" y2="39"/><text fill="#000000" font-family="sans-serif" font-size="14" lengthAdjust="spacing" textLength="124" x="2772.5" y="55.6738">timeRecords: String</text><text fill="#000000" font-family="sans-serif" font-size="14" lengthAdjust="spacing" textLength="165" x="2772.5" y="71.3145">spacingAndHeight: double</text><text fill="#000000" font-family="sans-serif" font-size="14" lengthAdjust="spacing" textLength="113" x="2772.5" y="86.9551">edgeInset: double</text><text fill="#000000" font-family="sans-serif" font-size="14" lengthAdjust="spacing" textLength="109" x="2772.5" y="102.5957">blackColor: Color</text><text fill="#000000" font-family="sans-serif" font-size="14" lengthAdjust="spacing" textLength="113" x="2772.5" y="118.2363">greenColor: Color</text><text fill="#000000" font-family="sans-serif" font-size="14" lengthAdjust="spacing" textLength="97" x="2772.5" y="133.877">redColor: Color</text><line style="stroke:#181818;stroke-width:1.0;" x1="2767.5" x2="2942.5" y1="140.8438" y2="140.8438"/></g><!--class Color--><g id="elem_Color"><rect fill="#F1F1F1" height="48" id="Color" rx="2.5" ry="2.5" style="stroke:#181818;stroke-width:0.5;" width="66" x="2822" y="295"/><ellipse cx="2837" cy="311" fill="#ADD1B2" rx="11" ry="11" style="stroke:#181818;stroke-width:1.0;"/><path d="M2839,307.5 Q2839.2031,307 2839.4375,306.75 Q2839.6719,306.5 2839.9375,306.5 Q2840.4063,306.5 2840.7031,306.7813 Q2841,307.0625 2841,307.7188 L2841,309.2813 Q2841,309.9375 2840.7188,310.2188 Q2840.4375,310.5 2840,310.5 Q2839.6094,310.5 2839.3594,310.3281 Q2839.1094,310.1563 2839,309.7031 Q2838.9531,309.3906 2838.7813,309.2188 Q2838.4688,308.8906 2837.9063,308.7031 Q2837.3438,308.5 2836.7813,308.5 Q2836.0781,308.5 2835.4844,308.7813 Q2834.9063,309.0625 2834.4531,309.6875 Q2834,310.3125 2834,311.1719 L2834,312.0938 Q2834,313.125 2834.8438,313.8125 Q2835.6875,314.5 2837.1875,314.5 Q2838.0781,314.5 2838.7031,314.2969 Q2839.0625,314.1875 2839.4688,313.8281 Q2839.7344,313.625 2839.875,313.5625 Q2840.0156,313.5 2840.1875,313.5 Q2840.5156,313.5 2840.75,313.7656 Q2841,314.0156 2841,314.375 Q2841,314.7188 2840.6563,315.125 Q2840.1563,315.7188 2839.3594,316.0469 Q2838.3125,316.5 2837.0313,316.5 Q2835.5313,316.5 2834.3281,315.9063 Q2833.3594,315.4375 2832.6719,314.4219 Q2832,313.4063 2832,312.2031 L2832,311.1094 Q2832,309.8594 2832.5938,308.7656 Q2833.2031,307.6719 2834.25,307.0938 Q2835.3125,306.5 2836.5,306.5 Q2837.2188,306.5 2837.8438,306.75 Q2838.4688,307 2839,307.5 Z " fill="#000000"/><text fill="#000000" font-family="sans-serif" font-size="14" lengthAdjust="spacing" textLength="34" x="2851" y="315.8535">Color</text><line style="stroke:#181818;stroke-width:0.5;" x1="2823" x2="2887" y1="327" y2="327"/><line style="stroke:#181818;stroke-width:0.5;" x1="2823" x2="2887" y1="335" y2="335"/></g><!--class DateTimeUtils--><g id="elem_DateTimeUtils"><rect codeLine="121" fill="#F1F1F1" height="110.5625" id="DateTimeUtils" rx="2.5" ry="2.5" style="stroke:#181818;stroke-width:0.5;" width="190" x="2979" y="22.5"/><ellipse cx="3026.25" cy="38.5" fill="#ADD1B2" rx="11" ry="11" style="stroke:#181818;stroke-width:1.0;"/><path d="M3028.25,35 Q3028.4531,34.5 3028.6875,34.25 Q3028.9219,34 3029.1875,34 Q3029.6563,34 3029.9531,34.2813 Q3030.25,34.5625 3030.25,35.2188 L3030.25,36.7813 Q3030.25,37.4375 3029.9688,37.7188 Q3029.6875,38 3029.25,38 Q3028.8594,38 3028.6094,37.8281 Q3028.3594,37.6563 3028.25,37.2031 Q3028.2031,36.8906 3028.0313,36.7188 Q3027.7188,36.3906 3027.1563,36.2031 Q3026.5938,36 3026.0313,36 Q3025.3281,36 3024.7344,36.2813 Q3024.1563,36.5625 3023.7031,37.1875 Q3023.25,37.8125 3023.25,38.6719 L3023.25,39.5938 Q3023.25,40.625 3024.0938,41.3125 Q3024.9375,42 3026.4375,42 Q3027.3281,42 3027.9531,41.7969 Q3028.3125,41.6875 3028.7188,41.3281 Q3028.9844,41.125 3029.125,41.0625 Q3029.2656,41 3029.4375,41 Q3029.7656,41 3030,41.2656 Q3030.25,41.5156 3030.25,41.875 Q3030.25,42.2188 3029.9063,42.625 Q3029.4063,43.2188 3028.6094,43.5469 Q3027.5625,44 3026.2813,44 Q3024.7813,44 3023.5781,43.4063 Q3022.6094,42.9375 3021.9219,41.9219 Q3021.25,40.9063 3021.25,39.7031 L3021.25,38.6094 Q3021.25,37.3594 3021.8438,36.2656 Q3022.4531,35.1719 3023.5,34.5938 Q3024.5625,34 3025.75,34 Q3026.4688,34 3027.0938,34.25 Q3027.7188,34.5 3028.25,35 Z " fill="#000000"/><text fill="#000000" font-family="sans-serif" font-size="14" lengthAdjust="spacing" textLength="87" x="3046.75" y="43.3535">DateTimeUtils</text><line style="stroke:#181818;stroke-width:0.5;" x1="2980" x2="3168" y1="54.5" y2="54.5"/><line style="stroke:#181818;stroke-width:1.0;" x1="2980" x2="3168" y1="62.5" y2="62.5"/><text fill="#000000" font-family="sans-serif" font-size="14" lengthAdjust="spacing" textLength="164" x="2999" y="79.1738">formatTimestamp(): String</text><text fill="#000000" font-family="sans-serif" font-size="14" lengthAdjust="spacing" textLength="126" x="2999" y="94.8145">formatTime(): String</text><rect fill="#F24D5C" height="6" style="stroke:#C82930;stroke-width:1.0;" width="6" x="2987" y="104.1016"/><text fill="#000000" font-family="sans-serif" font-size="14" lengthAdjust="spacing" textLength="164" x="2999" y="110.4551">_formatDateTime(): String</text><text fill="#000000" font-family="sans-serif" font-size="14" lengthAdjust="spacing" textLength="161" x="2999" y="126.0957">isValidDateFormat(): bool</text></g><!--link DefaultFirebaseOptions to FirebaseOptions--><g id="link_DefaultFirebaseOptions_FirebaseOptions"><path codeLine="9" d="M123,141.17 C123,189.16 123,253.3 123,289.68 " fill="none" id="DefaultFirebaseOptions-to-FirebaseOptions" style="stroke:#181818;stroke-width:1.0;stroke-dasharray:7.0,7.0;"/><polygon fill="#181818" points="123,294.84,127,285.84,123,289.84,119,285.84,123,294.84" style="stroke:#181818;stroke-width:1.0;"/></g><!--reverse link StatelessWidget to MyApp--><g id="link_StatelessWidget_MyApp"><path codeLine="14" d="M368.99,120.69 C347.4,168.01 312.68,244.15 293.28,286.68 " fill="none" id="StatelessWidget-backto-MyApp" style="stroke:#181818;stroke-width:1.0;"/><polygon fill="none" points="362.68,117.64,377.35,102.35,375.42,123.45,362.68,117.64" style="stroke:#181818;stroke-width:1.0;"/></g><!--reverse link StatelessWidget to MyHomePage--><g id="link_StatelessWidget_MyHomePage"><path codeLine="23" d="M396.48,122.12 C403.81,159.42 414.51,213.81 422.77,255.82 " fill="none" id="StatelessWidget-backto-MyHomePage" style="stroke:#181818;stroke-width:1.0;"/><polygon fill="none" points="389.58,123.33,392.59,102.35,403.32,120.62,389.58,123.33" style="stroke:#181818;stroke-width:1.0;"/></g><!--reverse link StatefulWidget to PriorityPage--><g id="link_StatefulWidget_PriorityPage"><path codeLine="28" d="M927.47,109.93 C873.57,133.22 801.4,168.09 744,209 C712.33,231.57 681.17,263.24 659.96,286.63 " fill="none" id="StatefulWidget-backto-PriorityPage" style="stroke:#181818;stroke-width:1.0;"/><polygon fill="none" points="924.93,103.4,946.08,102.03,930.4,116.29,924.93,103.4" style="stroke:#181818;stroke-width:1.0;"/></g><!--reverse link State to _PriorityState--><g id="link_State__PriorityState"><path codeLine="36" d="M2076.97,119.13 C2051.35,158.65 2012.02,219.29 1983.52,263.22 " fill="none" id="State-backto-_PriorityState" style="stroke:#181818;stroke-width:1.0;"/><polygon fill="none" points="2071.1,115.32,2087.86,102.35,2082.85,122.94,2071.1,115.32" style="stroke:#181818;stroke-width:1.0;"/></g><!--reverse link StatefulWidget to QueryPage--><g id="link_StatefulWidget_QueryPage"><path codeLine="41" d="M981.81,120.06 C955.1,167.33 911.82,243.96 887.69,286.68 " fill="none" id="StatefulWidget-backto-QueryPage" style="stroke:#181818;stroke-width:1.0;"/><polygon fill="none" points="975.88,116.32,991.81,102.35,988.07,123.21,975.88,116.32" style="stroke:#181818;stroke-width:1.0;"/></g><!--reverse link State to _QueryPageState--><g id="link_State__QueryPageState"><path codeLine="56" d="M2051.13,96.03 C1987.77,117.85 1878.39,158.93 1792,209 C1786.35,212.27 1780.68,215.74 1775.02,219.35 " fill="none" id="State-backto-_QueryPageState" style="stroke:#181818;stroke-width:1.0;"/><polygon fill="none" points="2049.18,89.29,2070.37,89.5,2053.67,102.55,2049.18,89.29" style="stroke:#181818;stroke-width:1.0;"/></g><!--link _QueryPageState to TextEditingController--><g id="link__QueryPageState_TextEditingController"><path codeLine="57" d="M1775.09,420.59 C1780.69,423.62 1786.33,426.44 1792,429 C1916.2,485.03 2074.29,506.64 2170.72,514.92 " fill="none" id="_QueryPageState-to-TextEditingController" style="stroke:#181818;stroke-width:1.0;stroke-dasharray:7.0,7.0;"/><polygon fill="#181818" points="2175.84,515.36,2167.2156,510.6039,2170.8584,514.9318,2166.5305,518.5745,2175.84,515.36" style="stroke:#181818;stroke-width:1.0;"/></g><!--link _QueryPageState to DateTime--><g id="link__QueryPageState_DateTime"><path codeLine="58" d="M1650,429.07 C1650,452.27 1650,474.8 1650,491.64 " fill="none" id="_QueryPageState-to-DateTime" style="stroke:#181818;stroke-width:1.0;stroke-dasharray:7.0,7.0;"/><polygon fill="#181818" points="1650,496.68,1654,487.68,1650,491.68,1646,487.68,1650,496.68" style="stroke:#181818;stroke-width:1.0;"/></g><!--reverse link StatefulWidget to RecordTimePage--><g id="link_StatefulWidget_RecordTimePage"><path codeLine="63" d="M1028.19,120.06 C1054.9,167.33 1098.18,243.96 1122.31,286.68 " fill="none" id="StatefulWidget-backto-RecordTimePage" style="stroke:#181818;stroke-width:1.0;"/><polygon fill="none" points="1021.93,123.21,1018.19,102.35,1034.12,116.32,1021.93,123.21" style="stroke:#181818;stroke-width:1.0;"/></g><!--reverse link State to _RecordTimePageState--><g id="link_State__RecordTimePageState"><path codeLine="76" d="M2129.24,119.47 C2147.85,148.15 2173.6,187.86 2197.18,224.22 " fill="none" id="State-backto-_RecordTimePageState" style="stroke:#181818;stroke-width:1.0;"/><polygon fill="none" points="2123.15,122.94,2118.14,102.35,2134.9,115.32,2123.15,122.94" style="stroke:#181818;stroke-width:1.0;"/></g><!--link _RecordTimePageState to TextEditingController--><g id="link__RecordTimePageState_TextEditingController"><path codeLine="77" d="M2258,413.56 C2258,442.05 2258,471.24 2258,491.83 " fill="none" id="_RecordTimePageState-to-TextEditingController" style="stroke:#181818;stroke-width:1.0;stroke-dasharray:7.0,7.0;"/><polygon fill="#181818" points="2258,496.87,2262,487.87,2258,491.87,2254,487.87,2258,496.87" style="stroke:#181818;stroke-width:1.0;"/></g><!--link ReportDataCommand to _ReportState--><g id="link_ReportDataCommand__ReportState"><path codeLine="87" d="M2604.01,117.67 C2600.35,141.3 2595.47,172.89 2590.65,203.98 " fill="none" id="ReportDataCommand-to-_ReportState" style="stroke:#181818;stroke-width:1.0;stroke-dasharray:7.0,7.0;"/><polygon fill="#181818" points="2589.88,208.96,2595.22,200.6845,2590.651,204.0198,2587.3157,199.4508,2589.88,208.96" style="stroke:#181818;stroke-width:1.0;"/></g><!--link ReportDataCommand to ReportCommand--><g id="link_ReportDataCommand_ReportCommand"><path codeLine="88" d="M2662.47,117.58 C2689.36,140.71 2719.45,172.66 2734,209 C2770.35,299.77 2763.15,335.67 2734,429 C2729.22,444.3 2720.86,459.3 2711.77,472.56 " fill="none" id="ReportDataCommand-to-ReportCommand" style="stroke:#181818;stroke-width:1.0;stroke-dasharray:7.0,7.0;"/><polygon fill="none" points="2717.18,477.01,2699.63,488.87,2705.95,468.65,2717.18,477.01" style="stroke:#181818;stroke-width:1.0;"/></g><!--reverse link StatefulWidget to ReportPage--><g id="link_StatefulWidget_ReportPage"><path codeLine="93" d="M1085.98,108.31 C1143.83,131.21 1222.06,166.26 1284,209 C1316.38,231.34 1348.01,263.34 1369.36,286.89 " fill="none" id="StatefulWidget-backto-ReportPage" style="stroke:#181818;stroke-width:1.0;"/><polygon fill="none" points="1083.31,114.78,1067.2,101.02,1088.38,101.73,1083.31,114.78" style="stroke:#181818;stroke-width:1.0;"/></g><!--reverse link State to _ReportState--><g id="link_State__ReportState"><path codeLine="108" d="M2154.54,97.12 C2217.07,119.91 2324.93,161.81 2412,209 C2417.94,212.22 2423.93,215.6 2429.93,219.09 " fill="none" id="State-backto-_ReportState" style="stroke:#181818;stroke-width:1.0;"/><polygon fill="none" points="2151.99,103.64,2135.55,90.28,2156.73,90.47,2151.99,103.64" style="stroke:#181818;stroke-width:1.0;"/></g><!--link _ReportState to TextEditingController--><g id="link__ReportState_TextEditingController"><path codeLine="109" d="M2429.77,417.62 C2423.79,421.49 2417.85,425.3 2412,429 C2375.86,451.88 2334.04,476.48 2303.1,494.33 " fill="none" id="_ReportState-to-TextEditingController" style="stroke:#181818;stroke-width:1.0;stroke-dasharray:7.0,7.0;"/><polygon fill="#181818" points="2298.62,496.91,2308.4166,495.8969,2302.9559,494.4201,2304.4327,488.9594,2298.62,496.91" style="stroke:#181818;stroke-width:1.0;"/></g><!--link _ReportState to ReportCommand--><g id="link__ReportState_ReportCommand"><path codeLine="110" d="M2626.44,429.07 C2636.19,448.95 2645.69,468.35 2653.4,484.09 " fill="none" id="_ReportState-to-ReportCommand" style="stroke:#181818;stroke-width:1.0;stroke-dasharray:7.0,7.0;"/><polygon fill="#181818" points="2655.74,488.85,2655.3683,479.0082,2653.5383,484.3608,2648.1856,482.5309,2655.74,488.85" style="stroke:#181818;stroke-width:1.0;"/></g><!--link Constants to Color--><g id="link_Constants_Color"><path codeLine="120" d="M2855,149.09 C2855,195.9 2855,254.98 2855,289.42 " fill="none" id="Constants-to-Color" style="stroke:#181818;stroke-width:1.0;stroke-dasharray:7.0,7.0;"/><polygon fill="#181818" points="2855,294.73,2859,285.73,2855,289.73,2851,285.73,2855,294.73" style="stroke:#181818;stroke-width:1.0;"/></g><!--SRC=[hLRBRjim4BphAtHiWIeVO1WEqZX10ZI8cxZjKQ2ejKAK8bLobSHeyk_bGv95ML9ywCM4TsUNmzc7JJdHEbx3ZjGShvc2Z6Yuhv19eUE_qGjaYtXWZeZ8bMJviOD9VMmi2Hqp9qaIqLef4BZX17TIbPy-7yFUembkPsUh8p1rZxdRNrILuMvlo6h6Svlt5yiBG9Fk4Ga21wsz9Lw-9OaFwS9lP0aRKi143WLKgln1rWZM-coaYFxKeFQXIK4b5OQsIZ6f60wGawHQ8WspJHFTuqOLc4WNRjEbBSHPsiIxclVpzjCqcSCuazk-Xq6-9aWMyJUcSNb7gkKZAYQABt6-5wHaTBMQq0Th9RP4_xuG-JtrHQRGGoIf5yUcTqMlJGGihHYhbhJdEdYGP_lTYZqZGkUVKw43jHA4KOq6-qifK4dEGItYBRpYLSxGQ70mHsOMgbo-Y9-4rx28lKRd8mfwpohIfj8KdSlWxUUMbN0-gkMJcJKEZPPRKdGzawGLA3iqZlQHY4dAj274t2NN1aRGOZ8fkV7jdC7Ugf6KbVLuSe4lC3inReNtcc4RDczJhe7qGr7jq8whE8PifMagzE3cpXfcQX-2vXeWHBPTC19lRihDyN4dx9GiRUJ7I9GduapXJq4L7uF6kYj9DNbs4ljdzxkBA0thHjMk48szxGvxtk_MP3_eWh4YZ2extGyaqwW8nRYjlTqNbx8ipK0qfOTNeE4QxMFju1tm6jsmfTxd6OtdE8ws98F0CSZRAkGOS9djrqFUgJvjKnnwj8lnJtDaJcWd4FbfmEdbbQJKFt0HldTkVNsj4QNOAFFxrkkmcP-0_xwzcZ8tN2TsLxyKWSOpMsi86-i1WpT41Th_KzZDckxewOfGSve5VmEiUC95dCiwun21qV1MQ3XOCaweMGXScigv8oeKW0Wi2lBWkwtBUtGWOMbwZwVN3lSFP5mtNJejyOJ0tjocwhcc2_d-3m00]--></g></svg>