<?xml version="1.0" encoding="us-ascii" standalone="no"?><svg xmlns="http://www.w3.org/2000/svg" xmlns:xlink="http://www.w3.org/1999/xlink" contentStyleType="text/css" height="434px" preserveAspectRatio="none" style="width:2471px;height:434px;background:#FFFFFF;" version="1.1" viewBox="0 0 2471 434" width="2471px" zoomAndPan="magnify"><defs/><g><!--class MyApp--><g id="elem_MyApp"><rect codeLine="1" fill="#F1F1F1" height="63.6406" id="MyApp" rx="2.5" ry="2.5" style="stroke:#181818;stroke-width:0.5;" width="104" x="7" y="185"/><ellipse cx="35.05" cy="201" fill="#ADD1B2" rx="11" ry="11" style="stroke:#181818;stroke-width:1.0;"/><path d="M37.05,197.5 Q37.2531,197 37.4875,196.75 Q37.7219,196.5 37.9875,196.5 Q38.4563,196.5 38.7531,196.7813 Q39.05,197.0625 39.05,197.7188 L39.05,199.2813 Q39.05,199.9375 38.7688,200.2188 Q38.4875,200.5 38.05,200.5 Q37.6594,200.5 37.4094,200.3281 Q37.1594,200.1563 37.05,199.7031 Q37.0031,199.3906 36.8313,199.2188 Q36.5188,198.8906 35.9563,198.7031 Q35.3938,198.5 34.8313,198.5 Q34.1281,198.5 33.5344,198.7813 Q32.9563,199.0625 32.5031,199.6875 Q32.05,200.3125 32.05,201.1719 L32.05,202.0938 Q32.05,203.125 32.8938,203.8125 Q33.7375,204.5 35.2375,204.5 Q36.1281,204.5 36.7531,204.2969 Q37.1125,204.1875 37.5188,203.8281 Q37.7844,203.625 37.925,203.5625 Q38.0656,203.5 38.2375,203.5 Q38.5656,203.5 38.8,203.7656 Q39.05,204.0156 39.05,204.375 Q39.05,204.7188 38.7063,205.125 Q38.2063,205.7188 37.4094,206.0469 Q36.3625,206.5 35.0813,206.5 Q33.5813,206.5 32.3781,205.9063 Q31.4094,205.4375 30.7219,204.4219 Q30.05,203.4063 30.05,202.2031 L30.05,201.1094 Q30.05,199.8594 30.6437,198.7656 Q31.2531,197.6719 32.3,197.0938 Q33.3625,196.5 34.55,196.5 Q35.2688,196.5 35.8938,196.75 Q36.5188,197 37.05,197.5 Z " fill="#000000"/><text fill="#000000" font-family="sans-serif" font-size="14" lengthAdjust="spacing" textLength="43" x="51.95" y="205.8535">MyApp</text><line style="stroke:#181818;stroke-width:0.5;" x1="8" x2="110" y1="217" y2="217"/><line style="stroke:#181818;stroke-width:1.0;" x1="8" x2="110" y1="225" y2="225"/><text fill="#000000" font-family="sans-serif" font-size="14" lengthAdjust="spacing" textLength="92" x="13" y="241.6738">build(): Widget</text></g><!--class StatelessWidget--><g id="elem_StatelessWidget"><rect fill="#F1F1F1" height="48" id="StatelessWidget" rx="2.5" ry="2.5" style="stroke:#181818;stroke-width:0.5;" width="134" x="66" y="7"/><ellipse cx="81" cy="23" fill="#ADD1B2" rx="11" ry="11" style="stroke:#181818;stroke-width:1.0;"/><path d="M83,19.5 Q83.2031,19 83.4375,18.75 Q83.6719,18.5 83.9375,18.5 Q84.4063,18.5 84.7031,18.7813 Q85,19.0625 85,19.7188 L85,21.2813 Q85,21.9375 84.7188,22.2188 Q84.4375,22.5 84,22.5 Q83.6094,22.5 83.3594,22.3281 Q83.1094,22.1563 83,21.7031 Q82.9531,21.3906 82.7813,21.2188 Q82.4688,20.8906 81.9063,20.7031 Q81.3438,20.5 80.7813,20.5 Q80.0781,20.5 79.4844,20.7813 Q78.9063,21.0625 78.4531,21.6875 Q78,22.3125 78,23.1719 L78,24.0938 Q78,25.125 78.8438,25.8125 Q79.6875,26.5 81.1875,26.5 Q82.0781,26.5 82.7031,26.2969 Q83.0625,26.1875 83.4688,25.8281 Q83.7344,25.625 83.875,25.5625 Q84.0156,25.5 84.1875,25.5 Q84.5156,25.5 84.75,25.7656 Q85,26.0156 85,26.375 Q85,26.7188 84.6563,27.125 Q84.1563,27.7188 83.3594,28.0469 Q82.3125,28.5 81.0313,28.5 Q79.5313,28.5 78.3281,27.9063 Q77.3594,27.4375 76.6719,26.4219 Q76,25.4063 76,24.2031 L76,23.1094 Q76,21.8594 76.5938,20.7656 Q77.2031,19.6719 78.25,19.0938 Q79.3125,18.5 80.5,18.5 Q81.2188,18.5 81.8438,18.75 Q82.4688,19 83,19.5 Z " fill="#000000"/><text fill="#000000" font-family="sans-serif" font-size="14" lengthAdjust="spacing" textLength="102" x="95" y="27.8535">StatelessWidget</text><line style="stroke:#181818;stroke-width:0.5;" x1="67" x2="199" y1="39" y2="39"/><line style="stroke:#181818;stroke-width:0.5;" x1="67" x2="199" y1="47" y2="47"/></g><!--class MyHomePage--><g id="elem_MyHomePage"><rect codeLine="6" fill="#F1F1F1" height="63.6406" id="MyHomePage" rx="2.5" ry="2.5" style="stroke:#181818;stroke-width:0.5;" width="119" x="146.5" y="185"/><ellipse cx="161.5" cy="201" fill="#ADD1B2" rx="11" ry="11" style="stroke:#181818;stroke-width:1.0;"/><path d="M163.5,197.5 Q163.7031,197 163.9375,196.75 Q164.1719,196.5 164.4375,196.5 Q164.9063,196.5 165.2031,196.7813 Q165.5,197.0625 165.5,197.7188 L165.5,199.2813 Q165.5,199.9375 165.2188,200.2188 Q164.9375,200.5 164.5,200.5 Q164.1094,200.5 163.8594,200.3281 Q163.6094,200.1563 163.5,199.7031 Q163.4531,199.3906 163.2813,199.2188 Q162.9688,198.8906 162.4063,198.7031 Q161.8438,198.5 161.2813,198.5 Q160.5781,198.5 159.9844,198.7813 Q159.4063,199.0625 158.9531,199.6875 Q158.5,200.3125 158.5,201.1719 L158.5,202.0938 Q158.5,203.125 159.3438,203.8125 Q160.1875,204.5 161.6875,204.5 Q162.5781,204.5 163.2031,204.2969 Q163.5625,204.1875 163.9688,203.8281 Q164.2344,203.625 164.375,203.5625 Q164.5156,203.5 164.6875,203.5 Q165.0156,203.5 165.25,203.7656 Q165.5,204.0156 165.5,204.375 Q165.5,204.7188 165.1563,205.125 Q164.6563,205.7188 163.8594,206.0469 Q162.8125,206.5 161.5313,206.5 Q160.0313,206.5 158.8281,205.9063 Q157.8594,205.4375 157.1719,204.4219 Q156.5,203.4063 156.5,202.2031 L156.5,201.1094 Q156.5,199.8594 157.0938,198.7656 Q157.7031,197.6719 158.75,197.0938 Q159.8125,196.5 161,196.5 Q161.7188,196.5 162.3438,196.75 Q162.9688,197 163.5,197.5 Z " fill="#000000"/><text fill="#000000" font-family="sans-serif" font-size="14" lengthAdjust="spacing" textLength="87" x="175.5" y="205.8535">MyHomePage</text><line style="stroke:#181818;stroke-width:0.5;" x1="147.5" x2="264.5" y1="217" y2="217"/><line style="stroke:#181818;stroke-width:1.0;" x1="147.5" x2="264.5" y1="225" y2="225"/><text fill="#000000" font-family="sans-serif" font-size="14" lengthAdjust="spacing" textLength="92" x="152.5" y="241.6738">build(): Widget</text></g><!--class PriorityPage--><g id="elem_PriorityPage"><rect codeLine="11" fill="#F1F1F1" height="63.6406" id="PriorityPage" rx="2.5" ry="2.5" style="stroke:#181818;stroke-width:0.5;" width="188" x="301" y="185"/><ellipse cx="352.25" cy="201" fill="#ADD1B2" rx="11" ry="11" style="stroke:#181818;stroke-width:1.0;"/><path d="M354.25,197.5 Q354.4531,197 354.6875,196.75 Q354.9219,196.5 355.1875,196.5 Q355.6563,196.5 355.9531,196.7813 Q356.25,197.0625 356.25,197.7188 L356.25,199.2813 Q356.25,199.9375 355.9688,200.2188 Q355.6875,200.5 355.25,200.5 Q354.8594,200.5 354.6094,200.3281 Q354.3594,200.1563 354.25,199.7031 Q354.2031,199.3906 354.0313,199.2188 Q353.7188,198.8906 353.1563,198.7031 Q352.5938,198.5 352.0313,198.5 Q351.3281,198.5 350.7344,198.7813 Q350.1563,199.0625 349.7031,199.6875 Q349.25,200.3125 349.25,201.1719 L349.25,202.0938 Q349.25,203.125 350.0938,203.8125 Q350.9375,204.5 352.4375,204.5 Q353.3281,204.5 353.9531,204.2969 Q354.3125,204.1875 354.7188,203.8281 Q354.9844,203.625 355.125,203.5625 Q355.2656,203.5 355.4375,203.5 Q355.7656,203.5 356,203.7656 Q356.25,204.0156 356.25,204.375 Q356.25,204.7188 355.9063,205.125 Q355.4063,205.7188 354.6094,206.0469 Q353.5625,206.5 352.2813,206.5 Q350.7813,206.5 349.5781,205.9063 Q348.6094,205.4375 347.9219,204.4219 Q347.25,203.4063 347.25,202.2031 L347.25,201.1094 Q347.25,199.8594 347.8438,198.7656 Q348.4531,197.6719 349.5,197.0938 Q350.5625,196.5 351.75,196.5 Q352.4688,196.5 353.0938,196.75 Q353.7188,197 354.25,197.5 Z " fill="#000000"/><text fill="#000000" font-family="sans-serif" font-size="14" lengthAdjust="spacing" textLength="77" x="372.75" y="205.8535">PriorityPage</text><line style="stroke:#181818;stroke-width:0.5;" x1="302" x2="488" y1="217" y2="217"/><line style="stroke:#181818;stroke-width:1.0;" x1="302" x2="488" y1="225" y2="225"/><text fill="#000000" font-family="sans-serif" font-size="14" lengthAdjust="spacing" textLength="176" x="307" y="241.6738">createState(): _PriorityState</text></g><!--class StatefulWidget--><g id="elem_StatefulWidget"><rect fill="#F1F1F1" height="48" id="StatefulWidget" rx="2.5" ry="2.5" style="stroke:#181818;stroke-width:0.5;" width="124" x="705" y="7"/><ellipse cx="720" cy="23" fill="#ADD1B2" rx="11" ry="11" style="stroke:#181818;stroke-width:1.0;"/><path d="M722,19.5 Q722.2031,19 722.4375,18.75 Q722.6719,18.5 722.9375,18.5 Q723.4063,18.5 723.7031,18.7813 Q724,19.0625 724,19.7188 L724,21.2813 Q724,21.9375 723.7188,22.2188 Q723.4375,22.5 723,22.5 Q722.6094,22.5 722.3594,22.3281 Q722.1094,22.1563 722,21.7031 Q721.9531,21.3906 721.7813,21.2188 Q721.4688,20.8906 720.9063,20.7031 Q720.3438,20.5 719.7813,20.5 Q719.0781,20.5 718.4844,20.7813 Q717.9063,21.0625 717.4531,21.6875 Q717,22.3125 717,23.1719 L717,24.0938 Q717,25.125 717.8438,25.8125 Q718.6875,26.5 720.1875,26.5 Q721.0781,26.5 721.7031,26.2969 Q722.0625,26.1875 722.4688,25.8281 Q722.7344,25.625 722.875,25.5625 Q723.0156,25.5 723.1875,25.5 Q723.5156,25.5 723.75,25.7656 Q724,26.0156 724,26.375 Q724,26.7188 723.6563,27.125 Q723.1563,27.7188 722.3594,28.0469 Q721.3125,28.5 720.0313,28.5 Q718.5313,28.5 717.3281,27.9063 Q716.3594,27.4375 715.6719,26.4219 Q715,25.4063 715,24.2031 L715,23.1094 Q715,21.8594 715.5938,20.7656 Q716.2031,19.6719 717.25,19.0938 Q718.3125,18.5 719.5,18.5 Q720.2188,18.5 720.8438,18.75 Q721.4688,19 722,19.5 Z " fill="#000000"/><text fill="#000000" font-family="sans-serif" font-size="14" lengthAdjust="spacing" textLength="92" x="734" y="27.8535">StatefulWidget</text><line style="stroke:#181818;stroke-width:0.5;" x1="706" x2="828" y1="39" y2="39"/><line style="stroke:#181818;stroke-width:0.5;" x1="706" x2="828" y1="47" y2="47"/></g><!--class _PriorityState--><g id="elem__PriorityState"><rect codeLine="16" fill="#F1F1F1" height="94.9219" id="_PriorityState" rx="2.5" ry="2.5" style="stroke:#181818;stroke-width:0.5;" width="276" x="1287" y="169.5"/><ellipse cx="1378.25" cy="185.5" fill="#ADD1B2" rx="11" ry="11" style="stroke:#181818;stroke-width:1.0;"/><path d="M1380.25,182 Q1380.4531,181.5 1380.6875,181.25 Q1380.9219,181 1381.1875,181 Q1381.6563,181 1381.9531,181.2813 Q1382.25,181.5625 1382.25,182.2188 L1382.25,183.7813 Q1382.25,184.4375 1381.9688,184.7188 Q1381.6875,185 1381.25,185 Q1380.8594,185 1380.6094,184.8281 Q1380.3594,184.6563 1380.25,184.2031 Q1380.2031,183.8906 1380.0313,183.7188 Q1379.7188,183.3906 1379.1563,183.2031 Q1378.5938,183 1378.0313,183 Q1377.3281,183 1376.7344,183.2813 Q1376.1563,183.5625 1375.7031,184.1875 Q1375.25,184.8125 1375.25,185.6719 L1375.25,186.5938 Q1375.25,187.625 1376.0938,188.3125 Q1376.9375,189 1378.4375,189 Q1379.3281,189 1379.9531,188.7969 Q1380.3125,188.6875 1380.7188,188.3281 Q1380.9844,188.125 1381.125,188.0625 Q1381.2656,188 1381.4375,188 Q1381.7656,188 1382,188.2656 Q1382.25,188.5156 1382.25,188.875 Q1382.25,189.2188 1381.9063,189.625 Q1381.4063,190.2188 1380.6094,190.5469 Q1379.5625,191 1378.2813,191 Q1376.7813,191 1375.5781,190.4063 Q1374.6094,189.9375 1373.9219,188.9219 Q1373.25,187.9063 1373.25,186.7031 L1373.25,185.6094 Q1373.25,184.3594 1373.8438,183.2656 Q1374.4531,182.1719 1375.5,181.5938 Q1376.5625,181 1377.75,181 Q1378.4688,181 1379.0938,181.25 Q1379.7188,181.5 1380.25,182 Z " fill="#000000"/><text fill="#000000" font-family="sans-serif" font-size="14" lengthAdjust="spacing" textLength="85" x="1398.75" y="190.3535">_PriorityState</text><line style="stroke:#181818;stroke-width:0.5;" x1="1288" x2="1562" y1="201.5" y2="201.5"/><text fill="#000000" font-family="sans-serif" font-size="14" lengthAdjust="spacing" textLength="264" x="1293" y="218.1738">queriedData: List&lt;Map&lt;String, dynamic&gt;&gt;</text><line style="stroke:#181818;stroke-width:1.0;" x1="1288" x2="1562" y1="225.1406" y2="225.1406"/><rect fill="#F24D5C" height="6" style="stroke:#C82930;stroke-width:1.0;" width="6" x="1295" y="235.4609"/><text fill="#000000" font-family="sans-serif" font-size="14" lengthAdjust="spacing" textLength="178" x="1307" y="241.8145">_reportData(): Future&lt;void&gt;</text><text fill="#000000" font-family="sans-serif" font-size="14" lengthAdjust="spacing" textLength="92" x="1307" y="257.4551">build(): Widget</text></g><!--class State--><g id="elem_State"><rect fill="#F1F1F1" height="48" id="State" rx="2.5" ry="2.5" style="stroke:#181818;stroke-width:0.5;" width="65" x="1856.5" y="7"/><ellipse cx="1871.5" cy="23" fill="#ADD1B2" rx="11" ry="11" style="stroke:#181818;stroke-width:1.0;"/><path d="M1873.5,19.5 Q1873.7031,19 1873.9375,18.75 Q1874.1719,18.5 1874.4375,18.5 Q1874.9063,18.5 1875.2031,18.7813 Q1875.5,19.0625 1875.5,19.7188 L1875.5,21.2813 Q1875.5,21.9375 1875.2188,22.2188 Q1874.9375,22.5 1874.5,22.5 Q1874.1094,22.5 1873.8594,22.3281 Q1873.6094,22.1563 1873.5,21.7031 Q1873.4531,21.3906 1873.2813,21.2188 Q1872.9688,20.8906 1872.4063,20.7031 Q1871.8438,20.5 1871.2813,20.5 Q1870.5781,20.5 1869.9844,20.7813 Q1869.4063,21.0625 1868.9531,21.6875 Q1868.5,22.3125 1868.5,23.1719 L1868.5,24.0938 Q1868.5,25.125 1869.3438,25.8125 Q1870.1875,26.5 1871.6875,26.5 Q1872.5781,26.5 1873.2031,26.2969 Q1873.5625,26.1875 1873.9688,25.8281 Q1874.2344,25.625 1874.375,25.5625 Q1874.5156,25.5 1874.6875,25.5 Q1875.0156,25.5 1875.25,25.7656 Q1875.5,26.0156 1875.5,26.375 Q1875.5,26.7188 1875.1563,27.125 Q1874.6563,27.7188 1873.8594,28.0469 Q1872.8125,28.5 1871.5313,28.5 Q1870.0313,28.5 1868.8281,27.9063 Q1867.8594,27.4375 1867.1719,26.4219 Q1866.5,25.4063 1866.5,24.2031 L1866.5,23.1094 Q1866.5,21.8594 1867.0938,20.7656 Q1867.7031,19.6719 1868.75,19.0938 Q1869.8125,18.5 1871,18.5 Q1871.7188,18.5 1872.3438,18.75 Q1872.9688,19 1873.5,19.5 Z " fill="#000000"/><text fill="#000000" font-family="sans-serif" font-size="14" lengthAdjust="spacing" textLength="33" x="1885.5" y="27.8535">State</text><line style="stroke:#181818;stroke-width:0.5;" x1="1857.5" x2="1920.5" y1="39" y2="39"/><line style="stroke:#181818;stroke-width:0.5;" x1="1857.5" x2="1920.5" y1="47" y2="47"/></g><!--class QueryPage--><g id="elem_QueryPage"><rect codeLine="23" fill="#F1F1F1" height="63.6406" id="QueryPage" rx="2.5" ry="2.5" style="stroke:#181818;stroke-width:0.5;" width="216" x="524" y="185"/><ellipse cx="591.75" cy="201" fill="#ADD1B2" rx="11" ry="11" style="stroke:#181818;stroke-width:1.0;"/><path d="M593.75,197.5 Q593.9531,197 594.1875,196.75 Q594.4219,196.5 594.6875,196.5 Q595.1563,196.5 595.4531,196.7813 Q595.75,197.0625 595.75,197.7188 L595.75,199.2813 Q595.75,199.9375 595.4688,200.2188 Q595.1875,200.5 594.75,200.5 Q594.3594,200.5 594.1094,200.3281 Q593.8594,200.1563 593.75,199.7031 Q593.7031,199.3906 593.5313,199.2188 Q593.2188,198.8906 592.6563,198.7031 Q592.0938,198.5 591.5313,198.5 Q590.8281,198.5 590.2344,198.7813 Q589.6563,199.0625 589.2031,199.6875 Q588.75,200.3125 588.75,201.1719 L588.75,202.0938 Q588.75,203.125 589.5938,203.8125 Q590.4375,204.5 591.9375,204.5 Q592.8281,204.5 593.4531,204.2969 Q593.8125,204.1875 594.2188,203.8281 Q594.4844,203.625 594.625,203.5625 Q594.7656,203.5 594.9375,203.5 Q595.2656,203.5 595.5,203.7656 Q595.75,204.0156 595.75,204.375 Q595.75,204.7188 595.4063,205.125 Q594.9063,205.7188 594.1094,206.0469 Q593.0625,206.5 591.7813,206.5 Q590.2813,206.5 589.0781,205.9063 Q588.1094,205.4375 587.4219,204.4219 Q586.75,203.4063 586.75,202.2031 L586.75,201.1094 Q586.75,199.8594 587.3438,198.7656 Q587.9531,197.6719 589,197.0938 Q590.0625,196.5 591.25,196.5 Q591.9688,196.5 592.5938,196.75 Q593.2188,197 593.75,197.5 Z " fill="#000000"/><text fill="#000000" font-family="sans-serif" font-size="14" lengthAdjust="spacing" textLength="72" x="612.25" y="205.8535">QueryPage</text><line style="stroke:#181818;stroke-width:0.5;" x1="525" x2="739" y1="217" y2="217"/><line style="stroke:#181818;stroke-width:1.0;" x1="525" x2="739" y1="225" y2="225"/><text fill="#000000" font-family="sans-serif" font-size="14" lengthAdjust="spacing" textLength="204" x="530" y="241.6738">createState(): _QueryPageState</text></g><!--class _QueryPageState--><g id="elem__QueryPageState"><rect codeLine="28" fill="#F1F1F1" height="204.4063" id="_QueryPageState" rx="2.5" ry="2.5" style="stroke:#181818;stroke-width:0.5;" width="250" x="2214" y="115"/><ellipse cx="2278.25" cy="131" fill="#ADD1B2" rx="11" ry="11" style="stroke:#181818;stroke-width:1.0;"/><path d="M2280.25,127.5 Q2280.4531,127 2280.6875,126.75 Q2280.9219,126.5 2281.1875,126.5 Q2281.6563,126.5 2281.9531,126.7813 Q2282.25,127.0625 2282.25,127.7188 L2282.25,129.2813 Q2282.25,129.9375 2281.9688,130.2188 Q2281.6875,130.5 2281.25,130.5 Q2280.8594,130.5 2280.6094,130.3281 Q2280.3594,130.1563 2280.25,129.7031 Q2280.2031,129.3906 2280.0313,129.2188 Q2279.7188,128.8906 2279.1563,128.7031 Q2278.5938,128.5 2278.0313,128.5 Q2277.3281,128.5 2276.7344,128.7813 Q2276.1563,129.0625 2275.7031,129.6875 Q2275.25,130.3125 2275.25,131.1719 L2275.25,132.0938 Q2275.25,133.125 2276.0938,133.8125 Q2276.9375,134.5 2278.4375,134.5 Q2279.3281,134.5 2279.9531,134.2969 Q2280.3125,134.1875 2280.7188,133.8281 Q2280.9844,133.625 2281.125,133.5625 Q2281.2656,133.5 2281.4375,133.5 Q2281.7656,133.5 2282,133.7656 Q2282.25,134.0156 2282.25,134.375 Q2282.25,134.7188 2281.9063,135.125 Q2281.4063,135.7188 2280.6094,136.0469 Q2279.5625,136.5 2278.2813,136.5 Q2276.7813,136.5 2275.5781,135.9063 Q2274.6094,135.4375 2273.9219,134.4219 Q2273.25,133.4063 2273.25,132.2031 L2273.25,131.1094 Q2273.25,129.8594 2273.8438,128.7656 Q2274.4531,127.6719 2275.5,127.0938 Q2276.5625,126.5 2277.75,126.5 Q2278.4688,126.5 2279.0938,126.75 Q2279.7188,127 2280.25,127.5 Z " fill="#000000"/><text fill="#000000" font-family="sans-serif" font-size="14" lengthAdjust="spacing" textLength="113" x="2298.75" y="135.8535">_QueryPageState</text><line style="stroke:#181818;stroke-width:0.5;" x1="2215" x2="2463" y1="147" y2="147"/><text fill="#000000" font-family="sans-serif" font-size="14" lengthAdjust="spacing" textLength="238" x="2220" y="163.6738">queryController: TextEditingController</text><text fill="#000000" font-family="sans-serif" font-size="14" lengthAdjust="spacing" textLength="151" x="2220" y="179.3145">dropdownValue: String?</text><text fill="#000000" font-family="sans-serif" font-size="14" lengthAdjust="spacing" textLength="161" x="2220" y="194.9551">queriedData: List&lt;String&gt;</text><text fill="#000000" font-family="sans-serif" font-size="14" lengthAdjust="spacing" textLength="160" x="2220" y="210.5957">selectedDate: DateTime?</text><line style="stroke:#181818;stroke-width:1.0;" x1="2215" x2="2463" y1="217.5625" y2="217.5625"/><rect fill="#F24D5C" height="6" style="stroke:#C82930;stroke-width:1.0;" width="6" x="2222" y="227.8828"/><text fill="#000000" font-family="sans-serif" font-size="14" lengthAdjust="spacing" textLength="198" x="2234" y="234.2363">_performQuery(): Future&lt;void&gt;</text><rect fill="#F24D5C" height="6" style="stroke:#C82930;stroke-width:1.0;" width="6" x="2222" y="243.5234"/><text fill="#000000" font-family="sans-serif" font-size="14" lengthAdjust="spacing" textLength="169" x="2234" y="249.877">_isValidDateFormat(): bool</text><rect fill="#F24D5C" height="6" style="stroke:#C82930;stroke-width:1.0;" width="6" x="2222" y="259.1641"/><text fill="#000000" font-family="sans-serif" font-size="14" lengthAdjust="spacing" textLength="172" x="2234" y="265.5176">_formatTimestamp(): String</text><rect fill="#F24D5C" height="6" style="stroke:#C82930;stroke-width:1.0;" width="6" x="2222" y="274.8047"/><text fill="#000000" font-family="sans-serif" font-size="14" lengthAdjust="spacing" textLength="134" x="2234" y="281.1582">_formatTime(): String</text><rect fill="#F24D5C" height="6" style="stroke:#C82930;stroke-width:1.0;" width="6" x="2222" y="290.4453"/><text fill="#000000" font-family="sans-serif" font-size="14" lengthAdjust="spacing" textLength="158" x="2234" y="296.7988">_queryInformation(): void</text><text fill="#000000" font-family="sans-serif" font-size="14" lengthAdjust="spacing" textLength="92" x="2234" y="312.4395">build(): Widget</text></g><!--class TextEditingController--><g id="elem_TextEditingController"><rect fill="#F1F1F1" height="48" id="TextEditingController" rx="2.5" ry="2.5" style="stroke:#181818;stroke-width:0.5;" width="164" x="1961" y="379"/><ellipse cx="1976" cy="395" fill="#ADD1B2" rx="11" ry="11" style="stroke:#181818;stroke-width:1.0;"/><path d="M1978,391.5 Q1978.2031,391 1978.4375,390.75 Q1978.6719,390.5 1978.9375,390.5 Q1979.4063,390.5 1979.7031,390.7813 Q1980,391.0625 1980,391.7188 L1980,393.2813 Q1980,393.9375 1979.7188,394.2188 Q1979.4375,394.5 1979,394.5 Q1978.6094,394.5 1978.3594,394.3281 Q1978.1094,394.1563 1978,393.7031 Q1977.9531,393.3906 1977.7813,393.2188 Q1977.4688,392.8906 1976.9063,392.7031 Q1976.3438,392.5 1975.7813,392.5 Q1975.0781,392.5 1974.4844,392.7813 Q1973.9063,393.0625 1973.4531,393.6875 Q1973,394.3125 1973,395.1719 L1973,396.0938 Q1973,397.125 1973.8438,397.8125 Q1974.6875,398.5 1976.1875,398.5 Q1977.0781,398.5 1977.7031,398.2969 Q1978.0625,398.1875 1978.4688,397.8281 Q1978.7344,397.625 1978.875,397.5625 Q1979.0156,397.5 1979.1875,397.5 Q1979.5156,397.5 1979.75,397.7656 Q1980,398.0156 1980,398.375 Q1980,398.7188 1979.6563,399.125 Q1979.1563,399.7188 1978.3594,400.0469 Q1977.3125,400.5 1976.0313,400.5 Q1974.5313,400.5 1973.3281,399.9063 Q1972.3594,399.4375 1971.6719,398.4219 Q1971,397.4063 1971,396.2031 L1971,395.1094 Q1971,393.8594 1971.5938,392.7656 Q1972.2031,391.6719 1973.25,391.0938 Q1974.3125,390.5 1975.5,390.5 Q1976.2188,390.5 1976.8438,390.75 Q1977.4688,391 1978,391.5 Z " fill="#000000"/><text fill="#000000" font-family="sans-serif" font-size="14" lengthAdjust="spacing" textLength="132" x="1990" y="399.8535">TextEditingController</text><line style="stroke:#181818;stroke-width:0.5;" x1="1962" x2="2124" y1="411" y2="411"/><line style="stroke:#181818;stroke-width:0.5;" x1="1962" x2="2124" y1="419" y2="419"/></g><!--class DateTime--><g id="elem_DateTime"><rect fill="#F1F1F1" height="48" id="DateTime" rx="2.5" ry="2.5" style="stroke:#181818;stroke-width:0.5;" width="93" x="2292.5" y="379"/><ellipse cx="2307.5" cy="395" fill="#ADD1B2" rx="11" ry="11" style="stroke:#181818;stroke-width:1.0;"/><path d="M2309.5,391.5 Q2309.7031,391 2309.9375,390.75 Q2310.1719,390.5 2310.4375,390.5 Q2310.9063,390.5 2311.2031,390.7813 Q2311.5,391.0625 2311.5,391.7188 L2311.5,393.2813 Q2311.5,393.9375 2311.2188,394.2188 Q2310.9375,394.5 2310.5,394.5 Q2310.1094,394.5 2309.8594,394.3281 Q2309.6094,394.1563 2309.5,393.7031 Q2309.4531,393.3906 2309.2813,393.2188 Q2308.9688,392.8906 2308.4063,392.7031 Q2307.8438,392.5 2307.2813,392.5 Q2306.5781,392.5 2305.9844,392.7813 Q2305.4063,393.0625 2304.9531,393.6875 Q2304.5,394.3125 2304.5,395.1719 L2304.5,396.0938 Q2304.5,397.125 2305.3438,397.8125 Q2306.1875,398.5 2307.6875,398.5 Q2308.5781,398.5 2309.2031,398.2969 Q2309.5625,398.1875 2309.9688,397.8281 Q2310.2344,397.625 2310.375,397.5625 Q2310.5156,397.5 2310.6875,397.5 Q2311.0156,397.5 2311.25,397.7656 Q2311.5,398.0156 2311.5,398.375 Q2311.5,398.7188 2311.1563,399.125 Q2310.6563,399.7188 2309.8594,400.0469 Q2308.8125,400.5 2307.5313,400.5 Q2306.0313,400.5 2304.8281,399.9063 Q2303.8594,399.4375 2303.1719,398.4219 Q2302.5,397.4063 2302.5,396.2031 L2302.5,395.1094 Q2302.5,393.8594 2303.0938,392.7656 Q2303.7031,391.6719 2304.75,391.0938 Q2305.8125,390.5 2307,390.5 Q2307.7188,390.5 2308.3438,390.75 Q2308.9688,391 2309.5,391.5 Z " fill="#000000"/><text fill="#000000" font-family="sans-serif" font-size="14" lengthAdjust="spacing" textLength="61" x="2321.5" y="399.8535">DateTime</text><line style="stroke:#181818;stroke-width:0.5;" x1="2293.5" x2="2384.5" y1="411" y2="411"/><line style="stroke:#181818;stroke-width:0.5;" x1="2293.5" x2="2384.5" y1="419" y2="419"/></g><!--class RecordTimePage--><g id="elem_RecordTimePage"><rect codeLine="44" fill="#F1F1F1" height="63.6406" id="RecordTimePage" rx="2.5" ry="2.5" style="stroke:#181818;stroke-width:0.5;" width="254" x="775" y="185"/><ellipse cx="842.75" cy="201" fill="#ADD1B2" rx="11" ry="11" style="stroke:#181818;stroke-width:1.0;"/><path d="M844.75,197.5 Q844.9531,197 845.1875,196.75 Q845.4219,196.5 845.6875,196.5 Q846.1563,196.5 846.4531,196.7813 Q846.75,197.0625 846.75,197.7188 L846.75,199.2813 Q846.75,199.9375 846.4688,200.2188 Q846.1875,200.5 845.75,200.5 Q845.3594,200.5 845.1094,200.3281 Q844.8594,200.1563 844.75,199.7031 Q844.7031,199.3906 844.5313,199.2188 Q844.2188,198.8906 843.6563,198.7031 Q843.0938,198.5 842.5313,198.5 Q841.8281,198.5 841.2344,198.7813 Q840.6563,199.0625 840.2031,199.6875 Q839.75,200.3125 839.75,201.1719 L839.75,202.0938 Q839.75,203.125 840.5938,203.8125 Q841.4375,204.5 842.9375,204.5 Q843.8281,204.5 844.4531,204.2969 Q844.8125,204.1875 845.2188,203.8281 Q845.4844,203.625 845.625,203.5625 Q845.7656,203.5 845.9375,203.5 Q846.2656,203.5 846.5,203.7656 Q846.75,204.0156 846.75,204.375 Q846.75,204.7188 846.4063,205.125 Q845.9063,205.7188 845.1094,206.0469 Q844.0625,206.5 842.7813,206.5 Q841.2813,206.5 840.0781,205.9063 Q839.1094,205.4375 838.4219,204.4219 Q837.75,203.4063 837.75,202.2031 L837.75,201.1094 Q837.75,199.8594 838.3438,198.7656 Q838.9531,197.6719 840,197.0938 Q841.0625,196.5 842.25,196.5 Q842.9688,196.5 843.5938,196.75 Q844.2188,197 844.75,197.5 Z " fill="#000000"/><text fill="#000000" font-family="sans-serif" font-size="14" lengthAdjust="spacing" textLength="110" x="863.25" y="205.8535">RecordTimePage</text><line style="stroke:#181818;stroke-width:0.5;" x1="776" x2="1028" y1="217" y2="217"/><line style="stroke:#181818;stroke-width:1.0;" x1="776" x2="1028" y1="225" y2="225"/><text fill="#000000" font-family="sans-serif" font-size="14" lengthAdjust="spacing" textLength="242" x="781" y="241.6738">createState(): _RecordTimePageState</text></g><!--class _RecordTimePageState--><g id="elem__RecordTimePageState"><rect codeLine="49" fill="#F1F1F1" height="188.7656" id="_RecordTimePageState" rx="2.5" ry="2.5" style="stroke:#181818;stroke-width:0.5;" width="273" x="1598.5" y="122.5"/><ellipse cx="1655.25" cy="138.5" fill="#ADD1B2" rx="11" ry="11" style="stroke:#181818;stroke-width:1.0;"/><path d="M1657.25,135 Q1657.4531,134.5 1657.6875,134.25 Q1657.9219,134 1658.1875,134 Q1658.6563,134 1658.9531,134.2813 Q1659.25,134.5625 1659.25,135.2188 L1659.25,136.7813 Q1659.25,137.4375 1658.9688,137.7188 Q1658.6875,138 1658.25,138 Q1657.8594,138 1657.6094,137.8281 Q1657.3594,137.6563 1657.25,137.2031 Q1657.2031,136.8906 1657.0313,136.7188 Q1656.7188,136.3906 1656.1563,136.2031 Q1655.5938,136 1655.0313,136 Q1654.3281,136 1653.7344,136.2813 Q1653.1563,136.5625 1652.7031,137.1875 Q1652.25,137.8125 1652.25,138.6719 L1652.25,139.5938 Q1652.25,140.625 1653.0938,141.3125 Q1653.9375,142 1655.4375,142 Q1656.3281,142 1656.9531,141.7969 Q1657.3125,141.6875 1657.7188,141.3281 Q1657.9844,141.125 1658.125,141.0625 Q1658.2656,141 1658.4375,141 Q1658.7656,141 1659,141.2656 Q1659.25,141.5156 1659.25,141.875 Q1659.25,142.2188 1658.9063,142.625 Q1658.4063,143.2188 1657.6094,143.5469 Q1656.5625,144 1655.2813,144 Q1653.7813,144 1652.5781,143.4063 Q1651.6094,142.9375 1650.9219,141.9219 Q1650.25,140.9063 1650.25,139.7031 L1650.25,138.6094 Q1650.25,137.3594 1650.8438,136.2656 Q1651.4531,135.1719 1652.5,134.5938 Q1653.5625,134 1654.75,134 Q1655.4688,134 1656.0938,134.25 Q1656.7188,134.5 1657.25,135 Z " fill="#000000"/><text fill="#000000" font-family="sans-serif" font-size="14" lengthAdjust="spacing" textLength="151" x="1675.75" y="143.3535">_RecordTimePageState</text><line style="stroke:#181818;stroke-width:0.5;" x1="1599.5" x2="1870.5" y1="154.5" y2="154.5"/><text fill="#000000" font-family="sans-serif" font-size="14" lengthAdjust="spacing" textLength="230" x="1604.5" y="171.1738">dateController: TextEditingController</text><text fill="#000000" font-family="sans-serif" font-size="14" lengthAdjust="spacing" textLength="261" x="1604.5" y="186.8145">fromTimeController: TextEditingController</text><text fill="#000000" font-family="sans-serif" font-size="14" lengthAdjust="spacing" textLength="245" x="1604.5" y="202.4551">toTimeController: TextEditingController</text><text fill="#000000" font-family="sans-serif" font-size="14" lengthAdjust="spacing" textLength="228" x="1604.5" y="218.0957">taskController: TextEditingController</text><text fill="#000000" font-family="sans-serif" font-size="14" lengthAdjust="spacing" textLength="222" x="1604.5" y="233.7363">tagController: TextEditingController</text><line style="stroke:#181818;stroke-width:1.0;" x1="1599.5" x2="1870.5" y1="240.7031" y2="240.7031"/><text fill="#000000" font-family="sans-serif" font-size="14" lengthAdjust="spacing" textLength="92" x="1618.5" y="257.377">build(): Widget</text><rect fill="#F24D5C" height="6" style="stroke:#C82930;stroke-width:1.0;" width="6" x="1606.5" y="266.6641"/><text fill="#000000" font-family="sans-serif" font-size="14" lengthAdjust="spacing" textLength="159" x="1618.5" y="273.0176">_saveTimeRecord(): void</text><rect fill="#F24D5C" height="6" style="stroke:#C82930;stroke-width:1.0;" width="6" x="1606.5" y="282.3047"/><text fill="#000000" font-family="sans-serif" font-size="14" lengthAdjust="spacing" textLength="153" x="1618.5" y="288.6582">_parseDate(): DateTime</text><rect fill="#F24D5C" height="6" style="stroke:#C82930;stroke-width:1.0;" width="6" x="1606.5" y="297.9453"/><text fill="#000000" font-family="sans-serif" font-size="14" lengthAdjust="spacing" textLength="164" x="1618.5" y="304.2988">_parseTime(): TimeOfDay</text></g><!--class ReportPage--><g id="elem_ReportPage"><rect codeLine="63" fill="#F1F1F1" height="63.6406" id="ReportPage" rx="2.5" ry="2.5" style="stroke:#181818;stroke-width:0.5;" width="187" x="1064.5" y="185"/><ellipse cx="1115.75" cy="201" fill="#ADD1B2" rx="11" ry="11" style="stroke:#181818;stroke-width:1.0;"/><path d="M1117.75,197.5 Q1117.9531,197 1118.1875,196.75 Q1118.4219,196.5 1118.6875,196.5 Q1119.1563,196.5 1119.4531,196.7813 Q1119.75,197.0625 1119.75,197.7188 L1119.75,199.2813 Q1119.75,199.9375 1119.4688,200.2188 Q1119.1875,200.5 1118.75,200.5 Q1118.3594,200.5 1118.1094,200.3281 Q1117.8594,200.1563 1117.75,199.7031 Q1117.7031,199.3906 1117.5313,199.2188 Q1117.2188,198.8906 1116.6563,198.7031 Q1116.0938,198.5 1115.5313,198.5 Q1114.8281,198.5 1114.2344,198.7813 Q1113.6563,199.0625 1113.2031,199.6875 Q1112.75,200.3125 1112.75,201.1719 L1112.75,202.0938 Q1112.75,203.125 1113.5938,203.8125 Q1114.4375,204.5 1115.9375,204.5 Q1116.8281,204.5 1117.4531,204.2969 Q1117.8125,204.1875 1118.2188,203.8281 Q1118.4844,203.625 1118.625,203.5625 Q1118.7656,203.5 1118.9375,203.5 Q1119.2656,203.5 1119.5,203.7656 Q1119.75,204.0156 1119.75,204.375 Q1119.75,204.7188 1119.4063,205.125 Q1118.9063,205.7188 1118.1094,206.0469 Q1117.0625,206.5 1115.7813,206.5 Q1114.2813,206.5 1113.0781,205.9063 Q1112.1094,205.4375 1111.4219,204.4219 Q1110.75,203.4063 1110.75,202.2031 L1110.75,201.1094 Q1110.75,199.8594 1111.3438,198.7656 Q1111.9531,197.6719 1113,197.0938 Q1114.0625,196.5 1115.25,196.5 Q1115.9688,196.5 1116.5938,196.75 Q1117.2188,197 1117.75,197.5 Z " fill="#000000"/><text fill="#000000" font-family="sans-serif" font-size="14" lengthAdjust="spacing" textLength="76" x="1136.25" y="205.8535">ReportPage</text><line style="stroke:#181818;stroke-width:0.5;" x1="1065.5" x2="1250.5" y1="217" y2="217"/><line style="stroke:#181818;stroke-width:1.0;" x1="1065.5" x2="1250.5" y1="225" y2="225"/><text fill="#000000" font-family="sans-serif" font-size="14" lengthAdjust="spacing" textLength="175" x="1070.5" y="241.6738">createState(): _ReportState</text></g><!--class _ReportState--><g id="elem__ReportState"><rect codeLine="68" fill="#F1F1F1" height="173.125" id="_ReportState" rx="2.5" ry="2.5" style="stroke:#181818;stroke-width:0.5;" width="272" x="1907" y="130.5"/><ellipse cx="1996.75" cy="146.5" fill="#ADD1B2" rx="11" ry="11" style="stroke:#181818;stroke-width:1.0;"/><path d="M1998.75,143 Q1998.9531,142.5 1999.1875,142.25 Q1999.4219,142 1999.6875,142 Q2000.1563,142 2000.4531,142.2813 Q2000.75,142.5625 2000.75,143.2188 L2000.75,144.7813 Q2000.75,145.4375 2000.4688,145.7188 Q2000.1875,146 1999.75,146 Q1999.3594,146 1999.1094,145.8281 Q1998.8594,145.6563 1998.75,145.2031 Q1998.7031,144.8906 1998.5313,144.7188 Q1998.2188,144.3906 1997.6563,144.2031 Q1997.0938,144 1996.5313,144 Q1995.8281,144 1995.2344,144.2813 Q1994.6563,144.5625 1994.2031,145.1875 Q1993.75,145.8125 1993.75,146.6719 L1993.75,147.5938 Q1993.75,148.625 1994.5938,149.3125 Q1995.4375,150 1996.9375,150 Q1997.8281,150 1998.4531,149.7969 Q1998.8125,149.6875 1999.2188,149.3281 Q1999.4844,149.125 1999.625,149.0625 Q1999.7656,149 1999.9375,149 Q2000.2656,149 2000.5,149.2656 Q2000.75,149.5156 2000.75,149.875 Q2000.75,150.2188 2000.4063,150.625 Q1999.9063,151.2188 1999.1094,151.5469 Q1998.0625,152 1996.7813,152 Q1995.2813,152 1994.0781,151.4063 Q1993.1094,150.9375 1992.4219,149.9219 Q1991.75,148.9063 1991.75,147.7031 L1991.75,146.6094 Q1991.75,145.3594 1992.3438,144.2656 Q1992.9531,143.1719 1994,142.5938 Q1995.0625,142 1996.25,142 Q1996.9688,142 1997.5938,142.25 Q1998.2188,142.5 1998.75,143 Z " fill="#000000"/><text fill="#000000" font-family="sans-serif" font-size="14" lengthAdjust="spacing" textLength="84" x="2017.25" y="151.3535">_ReportState</text><line style="stroke:#181818;stroke-width:0.5;" x1="1908" x2="2178" y1="162.5" y2="162.5"/><text fill="#000000" font-family="sans-serif" font-size="14" lengthAdjust="spacing" textLength="260" x="1913" y="179.1738">startDateController: TextEditingController</text><text fill="#000000" font-family="sans-serif" font-size="14" lengthAdjust="spacing" textLength="256" x="1913" y="194.8145">endDateController: TextEditingController</text><text fill="#000000" font-family="sans-serif" font-size="14" lengthAdjust="spacing" textLength="161" x="1913" y="210.4551">queriedData: List&lt;String&gt;</text><line style="stroke:#181818;stroke-width:1.0;" x1="1908" x2="2178" y1="217.4219" y2="217.4219"/><rect fill="#F24D5C" height="6" style="stroke:#C82930;stroke-width:1.0;" width="6" x="1915" y="227.7422"/><text fill="#000000" font-family="sans-serif" font-size="14" lengthAdjust="spacing" textLength="178" x="1927" y="234.0957">_reportData(): Future&lt;void&gt;</text><rect fill="#F24D5C" height="6" style="stroke:#C82930;stroke-width:1.0;" width="6" x="1915" y="243.3828"/><text fill="#000000" font-family="sans-serif" font-size="14" lengthAdjust="spacing" textLength="169" x="1927" y="249.7363">_isValidDateFormat(): bool</text><rect fill="#F24D5C" height="6" style="stroke:#C82930;stroke-width:1.0;" width="6" x="1915" y="259.0234"/><text fill="#000000" font-family="sans-serif" font-size="14" lengthAdjust="spacing" textLength="172" x="1927" y="265.377">_formatTimestamp(): String</text><rect fill="#F24D5C" height="6" style="stroke:#C82930;stroke-width:1.0;" width="6" x="1915" y="274.6641"/><text fill="#000000" font-family="sans-serif" font-size="14" lengthAdjust="spacing" textLength="134" x="1927" y="281.0176">_formatTime(): String</text><text fill="#000000" font-family="sans-serif" font-size="14" lengthAdjust="spacing" textLength="92" x="1927" y="296.6582">build(): Widget</text></g><!--reverse link StatelessWidget to MyApp--><g id="link_StatelessWidget_MyApp"><path codeLine="5" d="M116.14,73.93 C102.55,107.7 83.77,154.41 71.5,184.91 " fill="none" id="StatelessWidget-backto-MyApp" style="stroke:#181818;stroke-width:1.0;"/><polygon fill="none" points="109.67,71.25,123.63,55.3,122.66,76.47,109.67,71.25" style="stroke:#181818;stroke-width:1.0;"/></g><!--reverse link StatelessWidget to MyHomePage--><g id="link_StatelessWidget_MyHomePage"><path codeLine="10" d="M149.64,73.93 C163.03,107.7 181.57,154.41 193.67,184.91 " fill="none" id="StatelessWidget-backto-MyHomePage" style="stroke:#181818;stroke-width:1.0;"/><polygon fill="none" points="143.11,76.48,142.25,55.3,156.13,71.31,143.11,76.48" style="stroke:#181818;stroke-width:1.0;"/></g><!--reverse link StatefulWidget to PriorityPage--><g id="link_StatefulWidget_PriorityPage"><path codeLine="15" d="M685.25,48.42 C631.84,61.39 561.88,82.77 506,115 C473.95,133.48 443.3,162.54 422.36,184.75 " fill="none" id="StatefulWidget-backto-PriorityPage" style="stroke:#181818;stroke-width:1.0;"/><polygon fill="none" points="683.79,41.57,704.85,43.85,686.96,55.2,683.79,41.57" style="stroke:#181818;stroke-width:1.0;"/></g><!--reverse link State to _PriorityState--><g id="link_State__PriorityState"><path codeLine="22" d="M1836.57,40.96 C1773.89,52.83 1666.72,76.83 1581,115 C1548.43,129.5 1514.91,150.3 1487.33,169.26 " fill="none" id="State-backto-_PriorityState" style="stroke:#181818;stroke-width:1.0;"/><polygon fill="none" points="1835.47,34.05,1856.4,37.33,1837.99,47.82,1835.47,34.05" style="stroke:#181818;stroke-width:1.0;"/></g><!--reverse link StatefulWidget to QueryPage--><g id="link_StatefulWidget_QueryPage"><path codeLine="27" d="M737.96,71.58 C713.07,105.5 677.71,153.7 654.81,184.91 " fill="none" id="StatefulWidget-backto-QueryPage" style="stroke:#181818;stroke-width:1.0;"/><polygon fill="none" points="732.43,67.29,749.9,55.3,743.71,75.57,732.43,67.29" style="stroke:#181818;stroke-width:1.0;"/></g><!--reverse link State to _QueryPageState--><g id="link_State__QueryPageState"><path codeLine="41" d="M1941.53,40.4 C2004.26,51.72 2111.34,75.2 2196,115 C2201.91,117.78 2207.84,120.81 2213.74,124.02 " fill="none" id="State-backto-_QueryPageState" style="stroke:#181818;stroke-width:1.0;"/><polygon fill="none" points="1940.18,47.27,1921.67,36.96,1942.58,33.48,1940.18,47.27" style="stroke:#181818;stroke-width:1.0;"/></g><!--link _QueryPageState to TextEditingController--><g id="link__QueryPageState_TextEditingController"><path codeLine="42" d="M2213.62,307.79 C2207.7,311.64 2201.81,315.39 2196,319 C2162.74,339.67 2123.96,360.67 2093.76,376.38 " fill="none" id="_QueryPageState-to-TextEditingController" style="stroke:#181818;stroke-width:1.0;stroke-dasharray:7.0,7.0;"/><polygon fill="#181818" points="2088.99,378.86,2098.8214,378.2746,2093.4303,376.5613,2095.1436,371.1702,2088.99,378.86" style="stroke:#181818;stroke-width:1.0;"/></g><!--link _QueryPageState to DateTime--><g id="link__QueryPageState_DateTime"><path codeLine="43" d="M2339,319.15 C2339,339.08 2339,358.44 2339,373.42 " fill="none" id="_QueryPageState-to-DateTime" style="stroke:#181818;stroke-width:1.0;stroke-dasharray:7.0,7.0;"/><polygon fill="#181818" points="2339,378.73,2343,369.73,2339,373.73,2335,369.73,2339,378.73" style="stroke:#181818;stroke-width:1.0;"/></g><!--reverse link StatefulWidget to RecordTimePage--><g id="link_StatefulWidget_RecordTimePage"><path codeLine="48" d="M796.04,71.58 C820.93,105.5 856.29,153.7 879.19,184.91 " fill="none" id="StatefulWidget-backto-RecordTimePage" style="stroke:#181818;stroke-width:1.0;"/><polygon fill="none" points="790.29,75.57,784.1,55.3,801.57,67.29,790.29,75.57" style="stroke:#181818;stroke-width:1.0;"/></g><!--reverse link State to _RecordTimePageState--><g id="link_State__RecordTimePageState"><path codeLine="61" d="M1856.32,71.04 C1843.63,86.21 1828.49,104.3 1813.29,122.46 " fill="none" id="State-backto-_RecordTimePageState" style="stroke:#181818;stroke-width:1.0;"/><polygon fill="none" points="1851.29,66.15,1869.5,55.3,1862.03,75.13,1851.29,66.15" style="stroke:#181818;stroke-width:1.0;"/></g><!--link _RecordTimePageState to TextEditingController--><g id="link__RecordTimePageState_TextEditingController"><path codeLine="62" d="M1871.9,308.64 C1877.65,312.18 1883.37,315.64 1889,319 C1923.05,339.29 1962.41,360.47 1992.82,376.35 " fill="none" id="_RecordTimePageState-to-TextEditingController" style="stroke:#181818;stroke-width:1.0;stroke-dasharray:7.0,7.0;"/><polygon fill="#181818" points="1997.62,378.85,1991.4961,371.1365,1993.1886,376.5342,1987.7909,378.2267,1997.62,378.85" style="stroke:#181818;stroke-width:1.0;"/></g><!--reverse link StatefulWidget to ReportPage--><g id="link_StatefulWidget_ReportPage"><path codeLine="67" d="M849.05,46.37 C906.75,58.82 984.34,80.39 1046,115 C1078.42,133.2 1109.34,162.28 1130.44,184.58 " fill="none" id="StatefulWidget-backto-ReportPage" style="stroke:#181818;stroke-width:1.0;"/><polygon fill="none" points="847.32,53.16,829.14,42.27,850.14,39.45,847.32,53.16" style="stroke:#181818;stroke-width:1.0;"/></g><!--reverse link State to _ReportState--><g id="link_State__ReportState"><path codeLine="79" d="M1921.39,70.7 C1935.99,88.15 1953.87,109.5 1971.37,130.42 " fill="none" id="State-backto-_ReportState" style="stroke:#181818;stroke-width:1.0;"/><polygon fill="none" points="1915.97,75.13,1908.5,55.3,1926.71,66.15,1915.97,75.13" style="stroke:#181818;stroke-width:1.0;"/></g><!--link _ReportState to TextEditingController--><g id="link__ReportState_TextEditingController"><path codeLine="80" d="M2043,303.54 C2043,328.76 2043,354.63 2043,373.52 " fill="none" id="_ReportState-to-TextEditingController" style="stroke:#181818;stroke-width:1.0;stroke-dasharray:7.0,7.0;"/><polygon fill="#181818" points="2043,378.66,2047,369.66,2043,373.66,2039,369.66,2043,378.66" style="stroke:#181818;stroke-width:1.0;"/></g><!--SRC=[hLJBJiCm4BpdAt84YV01KPKAKIgGg2YqWcFbnflAmec3xHGYuD_n8qwRa4UHk2JIxkpixepjc28X_4LvbUV-fnS4WRSj2CLdvw7_Gl0EfFVjhIIIG4486_4dNq5WIxouAhzbAIpH3lxAuUegeYKdZ1DP7b7575IbATU46mSn4KUS5FIOzvYcOcxMAUwt0ZW1F4CIXVuz4NAoGFba9Jd9TXS-BZEKaZYAp0p1XaFEkDHWFSIya0M7oPuH7FNjQYTfZMjdULIjXrQiyqCxrY2tOBEgsh2yPfdaZ5BWeR-63tc3YLGR7i8UvYp7x3rxHhI0qBSAJ3lqiPd84yh7M9gKmkllcgGmhPJAWIUCfsQQNre56o9K7s9gvmg6fCPi6QCgbvY09XCIfRdEs9wDN2DiThpBR9QmJ2Trgn5NMWgtjRkyZ7h4wa8w1IeZdY1c7El0WCLDq93FJQGpkwDUTSBgDsvumbcgAyUHafs8G-Br5DHk7DJrUWGRWVP6OhjsRR8wROWBc5MgraPKSNTQzFyXcQ6oTGgwJEXKjlyyEClrwp1ejmOCs-me3XRNDOfLtGZp_fpW1cJuD63_5HzzzFxv8W_VrcFr6hBq-l83]--></g></svg>